<svg version="1.1" id="Layer_1" xmlns="http://www.w3.org/2000/svg" xmlns:xlink="http://www.w3.org/1999/xlink" x="0px" y="0px"
	 width="100%" viewBox="0 0 6000 1294" enable-background="new 0 0 6000 1294" xml:space="preserve">
<path fill="#1F4D84" opacity="1.000000" stroke="none" 
	d="
M2.000000,522.750000 
	C2.630726,521.987976 3.767154,522.122864 3.819412,521.942932 
	C6.060551,514.226257 11.899966,514.130859 18.534012,514.150024 
	C77.529083,514.320496 136.524902,514.288574 195.520386,514.226074 
	C214.059738,514.206482 232.931091,516.517944 249.981964,506.374420 
	C252.796127,513.952942 253.396484,564.615173 250.838776,577.623108 
	C245.290909,577.623108 239.376663,578.012207 233.563156,577.417114 
	C231.461075,577.201904 229.066528,574.993164 227.742569,573.054260 
	C225.129410,569.227234 223.332016,564.854980 220.911697,560.882263 
	C212.000427,546.254944 197.526535,541.170288 181.800720,540.600342 
	C157.835449,539.731812 133.814453,540.387512 109.817276,540.452271 
	C108.549797,540.455688 107.283730,540.982361 105.082115,541.474304 
	C104.828690,544.671021 104.374168,547.871155 104.351860,551.074280 
	C104.105911,586.395874 103.962418,621.718201 103.697151,657.039673 
	C103.650276,663.281799 103.171242,669.520569 102.847748,676.744202 
	C106.092445,677.074646 108.940773,677.607239 111.790817,677.616577 
	C134.122238,677.689758 156.456421,677.842285 178.783936,677.539856 
	C184.358078,677.464355 190.085159,676.399109 195.437881,674.782227 
	C206.986725,671.293518 213.894714,663.406494 215.056305,650.433960 
	C220.934235,650.433960 226.434479,650.433960 231.906174,650.433960 
	C234.098724,657.617310 234.660248,721.920471 232.533981,734.812012 
	C227.274139,734.812012 221.839371,734.812012 215.823761,734.812012 
	C215.106827,732.849487 214.347183,730.725891 213.556870,728.613770 
	C208.572495,715.293274 199.556793,707.231567 184.946182,705.677795 
	C158.048676,702.817383 131.160934,705.089172 103.172874,704.201172 
	C102.840218,709.107300 102.359047,712.950073 102.353264,716.793457 
	C102.296593,754.457153 102.293846,792.121094 102.328377,829.784912 
	C102.350174,853.558228 110.437149,862.991638 134.964447,866.739502 
	C135.147888,870.511841 135.344421,874.553528 135.586578,879.533264 
	C114.822990,881.694153 95.056046,877.394958 75.242020,878.273682 
	C55.406227,879.153198 35.554298,879.668823 14.978107,880.368958 
	C14.978107,875.243713 14.978107,871.419983 14.978107,867.017517 
	C18.347853,865.901123 21.810654,864.925598 25.142584,863.616882 
	C34.140186,860.082825 40.153358,853.762878 41.867260,844.093018 
	C42.849129,838.553467 43.579460,832.886658 43.604164,827.273560 
	C43.761158,791.610229 44.374367,755.928955 43.487518,720.287109 
	C42.710808,689.071472 40.134125,657.901550 38.412018,626.708130 
	C37.440281,609.106445 36.635921,591.495422 35.660896,573.893921 
	C35.238342,566.265747 34.891582,558.611084 33.936592,551.040771 
	C32.898129,542.808716 28.266144,536.901001 20.434105,533.882874 
	C14.857708,531.733948 9.155570,529.911377 2.754770,527.971558 
	C2.000000,526.500000 2.000000,525.000000 2.000000,522.750000 
z"/>
<path fill="#1F4D84" opacity="1.000000" stroke="none" 
	d="
M5317.151367,762.939819 
	C5292.085938,720.944458 5267.395508,679.576782 5242.704590,638.209167 
	C5242.134766,638.293945 5241.564453,638.378723 5240.994629,638.463562 
	C5240.583496,641.878967 5239.962402,645.284180 5239.796875,648.711487 
	C5239.042480,664.318970 5238.557129,679.940247 5237.708984,695.542114 
	C5236.608887,715.778992 5235.222656,736.000122 5234.022949,756.231812 
	C5232.744629,777.794495 5231.375488,799.354187 5230.420898,820.931824 
	C5230.188965,826.174072 5230.974609,831.577820 5232.074707,836.740479 
	C5235.208008,851.437744 5244.387695,860.678528 5259.513672,864.839172 
	C5259.513672,868.706177 5259.513672,872.547424 5259.513672,877.286682 
	C5243.762207,879.814392 5228.027344,875.315674 5212.251953,876.265869 
	C5196.760742,877.198975 5181.237305,877.590881 5165.960449,878.210815 
	C5163.287109,866.307068 5163.217285,866.170776 5172.039062,861.657898 
	C5182.174316,856.472717 5189.069824,848.382568 5191.375977,837.487000 
	C5194.187500,824.202881 5196.221680,810.684753 5197.532227,797.165100 
	C5201.796875,753.169250 5205.635254,709.131592 5209.522949,665.099915 
	C5211.890137,638.277954 5214.007324,611.433960 5216.309082,584.606140 
	C5218.269043,561.758118 5220.283203,538.914368 5222.405762,516.081116 
	C5222.738281,512.502502 5223.771484,508.989075 5224.534180,505.177734 
	C5226.864258,504.850098 5228.808594,504.657898 5230.720215,504.293884 
	C5239.213379,502.676453 5243.903320,506.638062 5247.963867,513.967163 
	C5275.381836,563.450745 5303.256348,612.681030 5330.854492,662.065002 
	C5348.219238,693.136780 5365.291992,724.371582 5382.644043,755.450378 
	C5387.931152,764.918640 5393.710449,774.111694 5399.953125,784.586670 
	C5402.208984,780.857788 5403.858887,778.495422 5405.145020,775.949463 
	C5423.610840,739.378967 5442.023926,702.782043 5460.458008,666.195679 
	C5485.916504,615.667847 5511.623047,565.262268 5536.604004,514.499390 
	C5540.719238,506.137054 5545.609375,502.910431 5554.291016,504.314423 
	C5555.591309,504.524719 5556.910156,504.616791 5559.345215,504.889526 
	C5560.094238,507.700500 5561.408691,510.718170 5561.643066,513.817444 
	C5563.242676,535.026184 5564.599121,556.253174 5566.065918,577.471985 
	C5568.034180,605.946167 5570.106445,634.413330 5571.990723,662.893005 
	C5573.547363,686.411743 5574.670898,709.960754 5576.391113,733.466614 
	C5578.670898,764.614990 5581.328125,795.735901 5583.880859,826.863892 
	C5584.069824,829.171997 5584.651855,831.458740 5585.173828,833.726990 
	C5588.433105,847.885132 5593.583984,860.624451 5609.657715,864.969849 
	C5609.657715,869.233765 5609.657715,873.069214 5609.657715,877.292053 
	C5572.674805,877.292053 5536.300781,877.292053 5499.127930,877.292053 
	C5499.127930,873.435303 5499.127930,869.644836 5499.127930,865.346863 
	C5516.476074,859.303589 5519.907715,845.239258 5520.399414,828.798279 
	C5521.148926,803.711853 5516.711426,779.094482 5514.802734,754.255310 
	C5513.530273,737.690918 5511.748535,721.166077 5510.273926,704.616455 
	C5508.651367,686.403870 5507.147949,668.180420 5505.490723,649.971008 
	C5505.358398,648.519043 5504.433594,647.139221 5503.079102,643.699280 
	C5464.222656,722.937256 5426.208496,800.458252 5387.010742,880.391968 
	C5374.396484,859.101074 5363.145020,840.051880 5351.834473,821.037720 
	C5340.428711,801.862915 5328.964355,782.722900 5317.151367,762.939819 
z"/>
<path fill="#1F4D84" opacity="1.000000" stroke="none" 
	d="
M424.116760,510.164398 
	C456.036316,509.573608 486.983002,508.160065 517.911255,508.486694 
	C546.369324,508.787231 574.127991,513.601013 599.887512,527.033264 
	C651.816833,554.111816 661.015564,609.912048 646.031616,645.826538 
	C636.391785,668.931580 619.275513,685.366028 597.680054,697.168457 
	C588.677551,702.088623 578.895142,705.582336 569.463684,709.716431 
	C567.055603,710.772034 564.633789,711.796143 561.703735,713.056030 
	C562.597717,715.223389 562.993103,717.208008 564.083496,718.676575 
	C599.800415,766.778564 635.137634,815.173767 671.617126,862.691711 
	C683.264099,877.862976 697.567993,891.100708 711.386414,904.468201 
	C724.491943,917.146118 741.275024,922.807068 758.912537,926.053284 
	C760.870300,926.413635 762.924561,926.348999 764.831421,926.862549 
	C767.507751,927.583374 770.365479,928.988342 769.182068,932.249695 
	C768.618713,933.802368 765.938904,935.417419 764.122864,935.534729 
	C757.817871,935.942078 751.422546,936.220764 745.149109,935.625793 
	C716.120972,932.872986 688.153381,925.791870 661.418762,914.070435 
	C637.409668,903.543884 615.077576,890.164124 597.453918,870.605103 
	C584.566650,856.302673 572.989014,840.740723 561.636963,825.150818 
	C536.969177,791.274292 512.714539,757.094482 488.594818,722.824829 
	C485.696777,718.707336 483.237335,717.507629 477.806915,720.032715 
	C477.806915,723.275024 477.807495,726.864502 477.806854,730.453918 
	C477.801208,762.775391 477.826508,795.096985 477.778564,827.418396 
	C477.746704,848.877869 482.274323,855.756226 501.898254,863.710144 
	C502.808350,864.079041 503.660370,864.591370 504.854919,865.196838 
	C505.114349,867.022888 505.580414,868.961121 505.612244,870.906494 
	C505.643921,872.841309 505.239288,874.783142 504.868561,878.152405 
	C486.478027,877.539612 468.352417,876.463135 450.226868,876.464294 
	C432.009216,876.465393 413.791656,877.539307 394.646667,878.173889 
	C394.646667,873.334900 394.646667,869.268860 394.646667,864.909119 
	C397.470917,863.776001 400.218689,862.655823 402.979614,861.569031 
	C414.251740,857.131653 419.426208,848.511780 419.614044,836.749756 
	C419.800262,825.090271 419.664032,813.425598 419.665344,801.763245 
	C419.670471,756.446472 419.934082,711.127808 419.596741,665.813599 
	C419.321777,628.874023 418.404175,591.938110 417.614014,555.003967 
	C417.299103,540.285156 411.335419,529.309509 396.244476,524.934509 
	C394.652679,524.473022 393.133270,523.755005 391.596405,523.117126 
	C391.316986,523.001221 391.116119,522.696106 390.300415,521.947021 
	C390.300415,518.283325 390.300415,514.084473 390.300415,509.224396 
	C401.542175,506.497437 412.322144,510.822174 424.116760,510.164398 
M558.594360,677.605347 
	C571.660950,664.579712 581.380493,649.529114 582.913574,630.819946 
	C583.772278,620.341187 583.236084,609.510925 581.613464,599.106506 
	C573.898193,549.636047 536.792542,526.441650 490.600403,534.009521 
	C481.231384,535.544495 477.896423,539.546692 477.747131,548.686768 
	C477.226044,580.590942 476.809937,612.496765 476.316406,644.401428 
	C476.208374,651.384277 475.836121,658.363831 475.778473,665.346497 
	C475.685760,676.582275 475.753601,687.819336 475.753601,699.256165 
	C507.542206,706.603943 533.970947,698.345398 558.594360,677.605347 
z"/>
<path fill="#1F4D84" opacity="1.000000" stroke="none" 
	d="
M4672.780273,798.738525 
	C4649.284180,835.851196 4614.525879,855.092896 4574.037109,865.989990 
	C4535.960449,876.237549 4497.115723,877.193787 4458.064941,876.083496 
	C4435.112793,875.430847 4412.157715,874.494812 4389.202148,874.451660 
	C4372.587891,874.420410 4355.972168,875.667847 4339.354980,876.294800 
	C4336.078125,876.418457 4332.792969,876.312622 4328.631348,876.312622 
	C4328.631348,872.013916 4328.631348,868.601685 4328.631348,864.895447 
	C4330.424805,864.059448 4332.142090,863.022644 4334.001465,862.430359 
	C4347.071777,858.267578 4353.436035,849.151428 4353.963867,835.672852 
	C4354.119629,831.679321 4354.269531,827.682068 4354.271484,823.686462 
	C4354.291992,774.353577 4354.945312,725.008423 4354.035156,675.692383 
	C4353.496094,646.477478 4350.424316,617.311646 4348.606445,588.116638 
	C4348.089355,579.810181 4347.824219,571.480774 4347.706543,563.158203 
	C4347.468750,546.321655 4342.209473,532.415527 4325.890137,524.790588 
	C4319.920410,522.001221 4321.858887,517.427795 4322.775879,511.868469 
	C4334.257324,511.868469 4345.515137,511.632202 4356.759277,511.932098 
	C4369.049805,512.260010 4381.328125,513.571777 4393.610840,513.561035 
	C4407.230957,513.549072 4420.844727,512.305420 4434.470703,511.984924 
	C4477.787109,510.966064 4521.102539,510.212128 4563.445801,521.905579 
	C4592.889160,530.036438 4620.684082,541.379822 4644.303711,561.560181 
	C4669.182129,582.815613 4686.090820,609.076721 4693.621582,640.783508 
	C4705.190918,689.491943 4701.895020,737.239990 4681.494629,783.340942 
	C4679.216309,788.489502 4675.974121,793.212036 4672.780273,798.738525 
M4421.666504,536.079346 
	C4415.991699,536.241150 4415.845703,540.138611 4415.737793,544.421204 
	C4415.361816,559.354797 4414.664062,574.280884 4414.351074,589.215332 
	C4414.009277,605.513367 4414.015137,621.818359 4413.770508,638.118835 
	C4413.336426,667.049377 4412.556152,695.977478 4412.417480,724.908936 
	C4412.225586,764.869202 4412.447266,804.831787 4412.606934,844.792908 
	C4412.635254,851.849487 4413.481445,852.823730 4420.548828,853.591492 
	C4430.452637,854.667297 4440.395996,855.708069 4450.343750,855.983643 
	C4479.635742,856.794922 4508.724609,856.817566 4536.940430,846.217224 
	C4570.290039,833.688171 4593.871582,811.401306 4608.249023,779.150330 
	C4616.156738,761.412598 4620.709961,742.834839 4622.700684,723.392883 
	C4626.472656,686.558350 4623.094238,651.373840 4605.926758,617.688477 
	C4587.399414,581.333252 4558.900391,557.219116 4521.131836,543.382019 
	C4498.269043,535.005798 4474.327637,534.115845 4450.325684,534.434631 
	C4441.384277,534.553406 4432.451172,535.342285 4421.666504,536.079346 
z"/>
<path fill="#1F4D83" opacity="1.000000" stroke="none" 
	d="
M3640.163574,745.842163 
	C3625.775879,729.912109 3611.910889,714.464783 3596.853516,697.688843 
	C3596.266846,701.057556 3595.826172,702.539978 3595.776367,704.035400 
	C3595.256348,719.659058 3594.599121,735.281860 3594.370850,750.910583 
	C3594.000977,776.229797 3593.904541,801.553284 3593.749756,826.875305 
	C3593.731689,829.864746 3593.885254,832.881226 3594.277588,835.843018 
	C3596.385986,851.761658 3601.530762,858.196899 3617.602295,865.091125 
	C3617.602295,868.825378 3617.602295,872.650635 3617.602295,876.720032 
	C3581.822021,876.720032 3546.734131,876.720032 3510.431152,876.720032 
	C3510.202637,873.191467 3509.958008,869.420227 3509.758057,866.335205 
	C3510.860596,865.178894 3511.236816,864.406250 3511.743652,864.307983 
	C3525.341309,861.671204 3532.119629,852.583496 3534.703857,839.769653 
	C3535.618652,835.232971 3536.216309,830.542236 3536.207764,825.923218 
	C3536.120117,777.935425 3536.058838,729.946228 3535.601318,681.961060 
	C3535.382568,659.008667 3534.345459,636.063782 3533.654297,613.116272 
	C3533.073486,593.831116 3532.418213,574.548096 3531.867432,555.262085 
	C3531.435303,540.122742 3527.465576,527.385315 3510.172852,523.644592 
	C3510.172852,519.189941 3510.172852,515.283264 3510.172852,510.430542 
	C3528.401611,508.497009 3546.176758,512.592285 3563.999512,511.723663 
	C3581.528320,510.869293 3599.074463,510.374237 3617.471680,509.689575 
	C3617.471680,514.789001 3617.471680,518.898499 3617.471680,522.951965 
	C3616.805664,523.418091 3616.318848,523.990601 3615.725342,524.140198 
	C3599.690674,528.181885 3595.818604,540.237000 3595.757080,554.646790 
	C3595.665771,575.978210 3595.908691,597.312134 3595.682617,618.641541 
	C3595.538330,632.270630 3594.788086,645.892822 3594.359131,659.519714 
	C3594.309326,661.095398 3594.578613,662.681030 3594.787598,665.398987 
	C3597.746094,663.723938 3600.235107,662.833069 3602.061768,661.201172 
	C3622.412842,643.018127 3642.734619,624.800842 3662.912842,606.426636 
	C3677.182861,593.432678 3691.374512,580.344055 3705.285889,566.969849 
	C3710.775391,561.692383 3715.835938,555.837524 3720.332520,549.690247 
	C3726.996582,540.580078 3725.868408,533.084167 3717.591553,525.130188 
	C3713.798828,521.485474 3713.798828,521.485535 3715.282959,510.690796 
	C3747.793701,510.690796 3780.416260,510.690796 3813.656738,510.690796 
	C3813.656738,514.919189 3813.656738,518.737244 3813.656738,522.927673 
	C3792.103760,528.355286 3776.788574,542.904175 3761.016113,556.659485 
	C3736.699707,577.865723 3712.603516,599.323975 3688.309326,620.555664 
	C3674.562012,632.569519 3660.624512,644.365662 3646.727783,656.207092 
	C3644.216064,658.347290 3641.486084,660.231140 3638.261963,662.686096 
	C3648.472900,674.682190 3657.306885,685.406738 3666.508301,695.806580 
	C3695.142090,728.170105 3723.950684,760.379395 3752.615723,792.715576 
	C3762.533447,803.903564 3772.075195,815.426697 3782.063232,826.550110 
	C3796.278809,842.381592 3812.246094,855.703613 3833.819336,860.300537 
	C3837.948486,861.180298 3840.262451,863.317932 3840.421875,867.729248 
	C3840.515381,870.322205 3841.083008,872.898071 3841.602051,876.680908 
	C3821.291992,879.733154 3801.599609,874.880127 3781.916016,875.685303 
	C3762.028809,876.498779 3742.133301,877.112427 3722.551758,877.802673 
	C3719.099854,867.953430 3719.176025,867.613037 3725.354492,862.882324 
	C3730.993652,858.564819 3732.209229,852.984192 3727.933105,846.305298 
	C3724.730469,841.303284 3720.605713,836.862854 3716.677734,832.359009 
	C3693.495605,805.778137 3670.261230,779.242798 3647.009033,752.723511 
	C3645.035889,750.472900 3642.800293,748.452271 3640.163574,745.842163 
z"/>
<path fill="#1F4D84" opacity="1.000000" stroke="none" 
	d="
M1672.155396,650.157837 
	C1666.547852,655.355164 1661.522827,660.148010 1655.794434,665.611572 
	C1664.637451,676.077026 1672.765991,686.040649 1681.259399,695.682800 
	C1704.347534,721.893127 1727.643433,747.920532 1750.751465,774.113281 
	C1765.049316,790.319763 1778.957886,806.873108 1793.400269,822.947937 
	C1809.081909,840.402344 1825.990234,856.250488 1849.659546,862.558167 
	C1855.901733,864.221619 1856.294189,865.955017 1855.208862,876.600830 
	C1842.109253,879.915771 1828.937378,876.070435 1815.777100,876.266968 
	C1802.802612,876.460754 1789.817871,876.067261 1776.846436,876.343384 
	C1763.656860,876.624207 1750.478027,877.407654 1737.076416,877.980408 
	C1735.465454,871.060120 1734.017334,866.277039 1741.102661,862.540527 
	C1746.547363,859.669128 1747.205933,854.418701 1744.189697,848.577332 
	C1742.385376,845.083069 1739.875122,841.866943 1737.268677,838.887451 
	C1722.379150,821.867737 1707.407837,804.919067 1692.383423,788.018066 
	C1673.612427,766.902649 1654.733398,745.883118 1635.964722,724.765564 
	C1629.790283,717.818604 1623.750610,710.748474 1617.791992,703.615723 
	C1616.308350,701.839722 1615.378540,699.601135 1614.194214,697.575317 
	C1613.245483,698.082764 1612.296631,698.590271 1611.347900,699.097778 
	C1611.005249,701.436890 1610.403198,703.771423 1610.361938,706.115845 
	C1610.092407,721.432861 1610.016357,736.753235 1609.739624,752.070068 
	C1609.325073,775.021851 1608.677002,797.970215 1608.403687,820.923279 
	C1608.336792,826.532593 1608.825195,832.259277 1609.943237,837.751953 
	C1613.894165,857.161926 1618.734009,860.052490 1633.096436,864.992310 
	C1633.096436,868.638672 1633.096436,872.461243 1633.096436,876.720276 
	C1597.092773,876.720276 1561.688477,876.720276 1524.994385,876.720276 
	C1524.830688,873.024292 1524.651001,868.966431 1524.482056,865.151550 
	C1543.943848,858.809387 1551.252808,849.568176 1551.521484,828.629211 
	C1551.995850,791.649109 1551.893555,754.656555 1551.575439,717.673157 
	C1551.375244,694.395142 1550.286987,671.125671 1549.697144,647.849854 
	C1548.963867,618.913513 1548.406006,589.972595 1547.592896,561.038635 
	C1547.444092,555.746155 1546.755493,550.416504 1545.755737,545.211670 
	C1543.875122,535.421265 1539.201660,527.820801 1528.610718,525.392944 
	C1526.699585,524.954895 1524.904297,524.011230 1522.780029,523.195129 
	C1522.780029,519.181580 1522.780029,515.288147 1522.780029,510.479797 
	C1541.066650,508.511963 1558.826172,512.552368 1576.628296,511.721710 
	C1594.468628,510.889191 1612.323975,510.379547 1630.945557,509.700195 
	C1630.945557,514.665466 1630.945557,518.491211 1630.945557,522.558899 
	C1630.288086,523.050293 1629.589233,523.967224 1628.730957,524.154724 
	C1616.090576,526.915771 1610.436157,535.255615 1609.606079,547.641663 
	C1609.406860,550.613525 1608.432007,553.554199 1608.408203,556.513977 
	C1608.128540,591.157776 1607.956299,625.802490 1607.790527,660.447083 
	C1607.784546,661.699219 1608.138306,662.953003 1608.458496,665.109375 
	C1610.660767,663.973633 1612.582642,663.421875 1613.926880,662.222656 
	C1631.049927,646.945679 1648.177124,631.671570 1665.126831,616.203125 
	C1682.809814,600.065613 1700.420898,583.844543 1717.807129,567.389282 
	C1723.339966,562.152710 1728.489014,556.374756 1733.039917,550.268005 
	C1740.056763,540.851990 1739.460327,534.235901 1730.944336,525.744080 
	C1726.243896,521.056946 1727.815552,516.216736 1728.556641,510.692352 
	C1761.317383,510.692352 1793.688965,510.692352 1826.867432,510.692352 
	C1826.867432,514.569458 1826.867432,518.348816 1826.867432,522.673340 
	C1823.520630,523.832520 1819.874878,524.550659 1816.786377,526.269775 
	C1808.387085,530.945007 1799.495605,535.151733 1792.124268,541.167786 
	C1778.486328,552.298828 1765.768555,564.560364 1752.711914,576.399902 
	C1731.091553,596.004578 1709.484863,615.624084 1687.922607,635.292419 
	C1682.759766,640.001709 1677.794189,644.927246 1672.155396,650.157837 
z"/>
<path fill="#FC8A1F" opacity="1.000000" stroke="none" 
	d="
M2830.088867,676.036865 
	C2832.223877,674.558289 2834.505615,673.250061 2836.463867,671.565552 
	C2840.303955,668.262024 2844.017822,667.968201 2847.887451,671.387451 
	C2851.724121,674.777649 2852.884033,679.242249 2850.510986,683.877380 
	C2847.877686,689.021362 2844.789551,693.932556 2840.937500,700.613342 
	C2844.071533,700.138000 2845.296143,700.243469 2846.210938,699.761047 
	C2849.462646,698.046021 2852.622559,697.588318 2855.138672,700.702637 
	C2857.699219,703.872009 2859.745605,707.601929 2857.392822,711.629639 
	C2853.745361,717.873779 2849.655518,723.859314 2845.029297,730.987610 
	C2845.218018,732.468506 2846.131104,732.916260 2847.043945,733.364014 
	C2850.592285,732.703735 2854.140869,732.043457 2857.348389,731.446533 
	C2865.226807,741.272400 2865.658203,744.632629 2859.108887,753.918518 
	C2855.297852,759.322266 2850.764160,764.248291 2846.271729,769.127808 
	C2843.450195,772.192627 2841.203857,774.668335 2843.129150,779.500427 
	C2845.088379,784.417725 2843.384277,789.243042 2839.712402,793.269653 
	C2835.312500,798.094055 2831.065918,803.058105 2826.150879,808.646362 
	C2827.571045,809.117554 2828.658203,809.478760 2829.746094,809.839172 
	C2838.924316,812.880127 2840.389648,814.544006 2840.332764,821.860291 
	C2840.271240,829.760742 2838.694824,831.963806 2829.206543,834.565735 
	C2822.198730,836.487488 2814.997559,837.888550 2807.793945,838.876953 
	C2789.774658,841.349243 2771.585205,842.778931 2753.696045,845.939026 
	C2741.276123,848.133057 2732.907715,842.265930 2722.206299,834.085388 
	C2742.428223,831.021118 2760.683105,828.254883 2778.937988,825.488647 
	C2770.182373,820.573853 2760.818848,820.651123 2751.649658,819.509888 
	C2742.538574,818.375916 2733.494629,816.702576 2722.785645,815.006775 
	C2725.343018,812.559509 2726.631836,810.803955 2728.353271,809.765076 
	C2738.302246,803.761169 2748.368408,797.952026 2758.359619,792.017334 
	C2761.010254,790.442993 2763.536133,788.658630 2765.610596,785.928772 
	C2748.462646,787.891174 2732.900146,795.468689 2716.250732,798.395996 
	C2715.816406,797.765991 2715.382080,797.135925 2714.947754,796.505920 
	C2723.191406,785.826172 2731.435059,775.146423 2740.346436,763.495728 
	C2741.660645,762.516846 2742.307617,762.509033 2742.638428,761.892029 
	C2744.579834,757.839111 2746.836914,754.395264 2748.271484,752.206360 
	C2744.756836,753.457703 2739.857178,755.482544 2738.003906,761.616943 
	C2739.875244,761.944092 2741.424561,762.214966 2742.442383,762.173096 
	C2741.772949,761.473145 2741.634766,761.085999 2741.496582,760.698792 
	C2742.123779,756.690796 2739.444824,757.983826 2738.127441,758.999084 
	C2733.142090,762.841492 2728.453125,767.064758 2723.540527,771.005127 
	C2717.143311,776.136475 2710.639160,781.134155 2703.265137,785.617676 
	C2705.958984,767.835510 2712.805908,751.498291 2717.572266,733.148071 
	C2717.567383,730.515869 2717.276367,729.258667 2716.985352,728.001526 
	C2716.242676,728.927490 2715.500244,729.853394 2714.757812,730.779297 
	C2705.888916,746.208862 2697.020020,761.638489 2688.151123,777.068054 
	C2702.651123,671.578491 2719.025391,566.646240 2715.438477,460.391602 
	C2727.064209,456.929504 2727.288330,457.373688 2732.282959,465.751892 
	C2734.769043,469.922424 2738.882080,473.123016 2743.667969,478.280487 
	C2743.667969,472.058990 2743.813477,467.505371 2743.627930,462.965271 
	C2743.436279,458.278839 2745.562256,456.544708 2750.134033,456.259491 
	C2760.649902,455.603394 2763.999023,457.802643 2765.942139,468.281311 
	C2770.020996,490.278046 2770.673584,512.522461 2770.371582,534.824951 
	C2770.319580,538.664795 2770.553223,542.508484 2770.713867,548.594910 
	C2775.074707,543.078369 2775.243896,538.882629 2775.658447,534.805481 
	C2777.234375,519.298096 2778.858398,503.794312 2780.236328,488.268951 
	C2780.668457,483.401611 2781.055664,478.803314 2786.987305,477.751007 
	C2793.981934,476.510132 2797.550537,478.152405 2800.162354,485.142639 
	C2802.217285,490.640747 2803.274170,496.568420 2804.244873,502.393585 
	C2804.814697,505.813385 2804.348877,509.405792 2804.348877,512.920593 
	C2805.287842,513.427673 2806.227051,513.934814 2807.166016,514.441956 
	C2808.091797,511.920929 2809.017578,509.399933 2809.581299,507.864532 
	C2822.883789,512.356689 2825.111816,515.146484 2824.260010,526.468445 
	C2822.893311,544.637329 2821.135986,562.776794 2819.466309,581.811523 
	C2830.291748,587.079468 2829.710205,596.636841 2826.520020,606.848022 
	C2824.146240,614.446411 2821.579834,621.984619 2818.549561,630.893921 
	C2818.249268,633.110901 2818.498291,633.983582 2818.747559,634.856201 
	C2819.494873,634.259949 2820.241699,633.663696 2820.988770,633.067383 
	C2827.704834,624.959717 2834.421143,616.852112 2841.356689,608.479797 
	C2847.645264,609.115540 2851.038818,613.782837 2853.872314,618.412292 
	C2855.168213,620.529968 2854.544922,623.948730 2854.406006,626.758362 
	C2854.346680,627.959961 2853.344238,629.136047 2852.700195,630.284424 
	C2844.638672,644.656494 2836.563965,659.021179 2827.927734,674.404785 
	C2826.530273,676.804749 2825.697998,678.187805 2824.865723,679.570862 
	C2825.394287,679.926208 2825.922852,680.281616 2826.451416,680.636963 
	C2827.664062,679.103638 2828.876465,677.570312 2830.088867,676.036865 
M2766.603027,786.768433 
	C2767.495117,786.138062 2768.386963,785.507690 2769.279053,784.877380 
	C2768.006348,785.063782 2766.733887,785.250183 2766.603027,786.768433 
M2843.907471,700.933594 
	C2843.443604,700.765259 2842.979980,700.596924 2842.516113,700.428589 
	C2842.658447,700.894958 2842.800537,701.361328 2843.907471,700.933594 
z"/>
<path fill="#FC891F" opacity="1.000000" stroke="none" 
	d="
M2532.483887,677.534790 
	C2527.003174,667.305847 2521.590088,657.039978 2516.013428,646.863647 
	C2513.299072,641.910461 2510.235596,637.149902 2507.409912,632.256287 
	C2504.435303,627.104858 2505.164795,621.843506 2507.951172,617.049927 
	C2512.000488,610.084595 2519.092285,609.865112 2523.974854,616.229980 
	C2527.011475,620.188477 2529.882812,624.281555 2533.063965,628.118835 
	C2535.048828,630.513245 2537.472412,632.543823 2539.699219,634.737610 
	C2540.405029,634.299683 2541.111084,633.861694 2541.817139,633.423767 
	C2540.852783,630.402710 2539.846924,627.394226 2538.932617,624.358154 
	C2537.018555,618.002197 2535.312012,611.579163 2533.229980,605.279663 
	C2530.182861,596.061523 2530.844482,588.192261 2540.410889,583.580994 
	C2538.904785,568.585327 2537.352539,554.106689 2536.047363,539.605835 
	C2535.601074,534.643555 2535.887451,529.619751 2535.629639,524.634888 
	C2535.357178,519.359375 2537.860596,515.844116 2542.073730,513.078003 
	C2548.572754,508.811096 2550.704834,509.279236 2555.572021,517.158447 
	C2556.523926,507.681885 2557.354980,499.014832 2558.275635,490.357361 
	C2559.166016,481.984436 2569.947754,476.371979 2576.698730,481.195801 
	C2578.606934,482.559418 2579.317383,486.313934 2579.629150,489.078735 
	C2581.337158,504.233337 2582.689697,519.427612 2584.303955,534.593384 
	C2584.742920,538.718140 2585.664062,542.791565 2586.363525,546.888550 
	C2587.138428,546.844177 2587.913086,546.799744 2588.687744,546.755310 
	C2589.006592,544.346436 2589.458740,541.946594 2589.623291,539.527283 
	C2591.041260,518.672546 2592.389893,497.813110 2593.814209,476.958862 
	C2593.972168,474.647614 2594.392578,472.343597 2594.835693,470.064331 
	C2597.238037,457.705750 2603.184326,454.853149 2615.961182,460.306641 
	C2615.961182,467.655579 2615.961182,475.208008 2615.961182,483.131348 
	C2621.463135,475.434692 2626.618164,468.223541 2632.303711,460.270203 
	C2633.442627,460.132782 2635.365723,459.642059 2637.266357,459.717224 
	C2644.602295,460.007416 2644.819092,461.115295 2644.774658,468.897980 
	C2644.676270,486.159241 2645.227051,503.425018 2645.577148,520.687622 
	C2645.746094,529.006958 2645.854492,537.335388 2646.342529,545.638977 
	C2648.969482,590.324463 2653.746826,634.783325 2659.326172,679.202637 
	C2663.377686,711.459229 2667.433105,743.667969 2673.804932,775.556519 
	C2673.985596,776.460571 2673.732666,777.451233 2673.590820,780.109619 
	C2661.221191,764.703857 2656.038330,746.450073 2643.730713,732.512329 
	C2645.511475,751.120728 2653.993408,767.794373 2659.683838,786.905884 
	C2644.708252,779.367493 2635.571289,766.511414 2621.530273,760.251831 
	C2627.075195,774.357239 2639.016357,784.156006 2647.213379,798.784668 
	C2627.959961,795.403809 2611.789551,787.403503 2593.956299,785.253174 
	C2599.343750,792.664734 2607.958740,795.225098 2615.133545,799.768860 
	C2622.598145,804.495789 2630.411377,808.671387 2638.072266,813.088013 
	C2637.969971,813.801331 2637.867920,814.514648 2637.765625,815.227966 
	C2619.463135,817.706665 2601.160889,820.185364 2582.858398,822.664062 
	C2582.824707,823.426880 2582.791016,824.189758 2582.757568,824.952576 
	C2600.626221,829.599915 2619.374023,829.796326 2639.287354,834.672058 
	C2631.248047,840.638245 2625.160400,846.838379 2615.434082,846.315002 
	C2586.888428,844.778870 2558.552246,841.777832 2530.947510,833.871826 
	C2522.878662,831.560852 2521.530029,829.556885 2521.858643,821.101074 
	C2522.186768,812.657959 2523.270996,811.484314 2532.441650,809.727112 
	C2533.610107,809.503235 2534.798828,809.384338 2537.501709,809.000488 
	C2532.321533,803.816895 2528.501953,799.339417 2524.024170,795.664185 
	C2516.920410,789.833801 2513.923828,783.441833 2519.775146,774.684570 
	C2515.294189,769.453796 2510.853516,764.548279 2506.745117,759.378906 
	C2503.859863,755.748840 2500.836426,752.032288 2498.914307,747.873901 
	C2494.832031,739.043152 2499.682129,732.852905 2509.338623,734.002869 
	C2510.895264,734.188293 2512.420410,734.641357 2516.349365,735.481750 
	C2511.879639,728.766602 2508.459717,723.778503 2505.203125,718.686157 
	C2502.866943,715.033264 2500.540527,711.292969 2502.431152,706.623596 
	C2504.906982,700.508667 2508.531738,699.139038 2514.827393,701.952637 
	C2515.738770,702.359924 2516.640381,702.797607 2517.580078,703.124878 
	C2517.781982,703.195068 2518.128906,702.847717 2519.318359,702.189880 
	C2516.815918,697.845459 2514.292969,693.466614 2511.770752,689.087219 
	C2505.854248,678.813171 2507.119385,675.254028 2518.839844,670.255798 
	C2522.258057,672.990051 2525.860596,675.871582 2530.448486,679.700806 
	C2532.505371,680.857056 2533.577148,681.065735 2534.648682,681.274414 
	C2533.927246,680.027832 2533.205566,678.781311 2532.483887,677.534790 
M2615.285645,755.019592 
	C2616.251709,755.865479 2617.217773,756.711365 2618.183838,757.557312 
	C2617.780762,756.479980 2617.377686,755.402649 2615.285645,755.019592 
M2593.514893,786.773621 
	C2593.451660,785.822205 2593.706543,784.302917 2593.252686,784.048462 
	C2592.514404,783.634644 2591.312256,784.048157 2590.305908,784.112427 
	C2590.705566,784.780518 2591.105225,785.448608 2593.514893,786.773621 
M2643.215088,732.469910 
	C2643.537842,731.523621 2643.979736,730.590820 2644.089355,729.620544 
	C2644.112793,729.412354 2642.934082,729.068359 2642.309326,728.786865 
	C2642.194580,729.569641 2642.079834,730.352356 2643.215088,732.469910 
M2542.000000,635.000061 
	C2541.600098,634.733398 2541.199951,634.466736 2540.800049,634.200012 
	C2540.866699,634.799988 2540.933350,635.400024 2542.000000,635.000061 
z"/>
<path fill="#1F4D83" opacity="1.000000" stroke="none" 
	d="
M1975.674072,652.050781 
	C1975.001587,618.781372 1974.304810,586.504822 1973.679443,554.226868 
	C1973.447021,542.228455 1968.019897,533.987305 1956.588745,529.928284 
	C1953.492798,528.828979 1950.373779,527.794739 1946.834961,526.583252 
	C1946.834961,522.864380 1946.834961,519.300232 1946.834961,514.470764 
	C1951.044556,514.210022 1955.201782,513.731750 1959.359619,513.728210 
	C2017.346802,513.679077 2075.335449,513.467102 2133.320312,513.828979 
	C2151.476807,513.942261 2169.151367,511.978424 2186.534424,506.904175 
	C2188.760254,506.254517 2191.062988,505.843353 2193.352783,505.456635 
	C2193.912598,505.362061 2194.562988,505.800446 2195.329102,506.043732 
	C2195.329102,531.443176 2195.329102,556.882141 2195.329102,582.816589 
	C2189.690674,585.643127 2183.276611,584.460205 2177.180420,583.901062 
	C2175.038574,583.704590 2172.693604,580.557617 2171.309326,578.239624 
	C2167.400879,571.693787 2164.305176,564.649536 2160.230225,558.219238 
	C2152.110840,545.406738 2139.625977,538.944092 2124.991943,538.605957 
	C2096.016846,537.936462 2067.013916,538.455688 2038.022583,538.534851 
	C2037.096191,538.537415 2036.171387,539.101746 2035.352783,539.369202 
	C2033.224365,547.423645 2032.992554,665.126282 2035.159790,675.393433 
	C2036.500244,675.642029 2038.074097,676.193604 2039.645630,676.186768 
	C2068.297119,676.062195 2096.948730,675.925293 2125.599365,675.671631 
	C2141.504150,675.530823 2154.153320,669.509399 2161.208740,654.546814 
	C2163.575439,649.527893 2167.085938,647.739685 2172.338623,648.254150 
	C2175.586426,648.572205 2178.865234,648.573792 2183.137451,648.761780 
	C2185.139404,664.238953 2180.878418,678.996643 2181.692627,693.811340 
	C2182.509766,708.672974 2183.106689,723.546692 2183.807373,738.569153 
	C2176.421875,741.542542 2169.937744,740.056152 2163.352051,740.039124 
	C2160.911621,734.323364 2158.706055,729.153076 2156.496338,723.984619 
	C2150.054932,708.918762 2139.118896,701.308899 2122.255859,701.607605 
	C2096.270020,702.067932 2070.269531,701.703674 2044.275391,701.739075 
	C2041.332153,701.743103 2038.389404,702.067810 2035.640015,702.232178 
	C2033.184204,710.351929 2032.881226,835.003540 2035.329224,845.732666 
	C2038.651245,845.899170 2042.219971,846.226990 2045.789185,846.233276 
	C2072.783203,846.280640 2099.792236,845.704834 2126.767090,846.424561 
	C2154.400146,847.161804 2176.026611,837.219299 2191.318359,813.995544 
	C2192.588135,812.067078 2194.075439,810.281616 2196.139160,807.524597 
	C2201.741943,810.233215 2207.275635,812.908569 2213.918213,816.119995 
	C2207.888184,837.837708 2201.988770,859.085693 2195.922852,880.933655 
	C2192.133789,880.087952 2189.560059,879.711731 2187.113281,878.934937 
	C2172.054932,874.154480 2156.512451,872.432678 2140.853760,872.385925 
	C2079.534424,872.202881 2018.214478,872.310974 1956.894775,872.310852 
	C1953.017944,872.310852 1949.140991,872.310852 1945.248169,872.310852 
	C1944.417969,865.712219 1946.349854,862.639099 1951.640381,861.716309 
	C1969.530396,858.595581 1977.773926,844.723511 1977.716064,826.854004 
	C1977.588745,787.529785 1977.891235,748.203308 1977.596313,708.880920 
	C1977.456787,690.264587 1976.347778,671.655518 1975.674072,652.050781 
z"/>
<path fill="#1F4D83" opacity="1.000000" stroke="none" 
	d="
M5049.835938,512.431030 
	C5049.176270,527.840759 5048.312012,542.429321 5048.086426,557.027832 
	C5047.989746,563.276428 5049.308594,569.538574 5049.827637,575.807495 
	C5050.365723,582.301147 5048.823242,584.017456 5042.059082,584.276062 
	C5037.124023,584.464783 5032.175293,584.313049 5027.685059,584.313049 
	C5024.660156,577.829712 5022.123535,572.428833 5019.616699,567.014038 
	C5011.243164,548.925354 4996.719727,539.130188 4977.194824,538.613892 
	C4948.226562,537.847778 4919.222168,538.450012 4890.232910,538.516418 
	C4889.296875,538.518555 4888.362305,539.031555 4887.516113,539.280151 
	C4885.343750,546.823669 4884.873047,663.578003 4887.037598,675.276917 
	C4889.044434,675.587708 4891.261719,676.237854 4893.475586,676.227539 
	C4921.791016,676.094849 4950.108398,676.012756 4978.420898,675.600952 
	C4991.813477,675.406189 5002.967773,670.612793 5010.431152,658.634766 
	C5017.876465,646.684937 5018.734375,646.556152 5034.864258,649.614868 
	C5034.527344,664.281982 5033.901855,679.110474 5033.926270,693.937805 
	C5033.951172,708.845398 5034.622070,723.751892 5035.031738,739.514282 
	C5028.323730,739.514282 5021.871582,739.514282 5015.048340,739.514282 
	C5011.756836,732.398743 5008.662109,725.071838 5005.035645,718.018799 
	C4999.703613,707.650574 4990.853516,702.005066 4979.292480,701.893372 
	C4949.971680,701.609924 4920.646484,701.791138 4891.322754,701.830383 
	C4890.039551,701.832092 4888.757324,702.270813 4887.595703,702.483765 
	C4885.251465,710.251404 4884.920898,834.826294 4887.331055,845.723206 
	C4890.653320,845.892761 4894.219238,846.226746 4897.786621,846.232910 
	C4925.777832,846.281433 4953.771973,846.032715 4981.759766,846.342346 
	C5006.622559,846.617371 5026.291992,837.161438 5040.664551,816.787415 
	C5042.757324,813.821411 5045.129395,811.052734 5047.935547,807.473633 
	C5053.774414,810.253723 5059.348145,812.907715 5065.665527,815.915771 
	C5059.324219,837.516663 5053.166992,858.491882 5046.863281,879.965027 
	C5045.746094,880.044312 5044.356934,880.533142 5043.257324,880.162964 
	C5022.101074,873.041931 5000.230957,872.209961 4978.184082,872.264587 
	C4921.868164,872.404236 4865.551758,872.311157 4809.235840,872.311096 
	C4805.280273,872.311096 4801.325195,872.311035 4796.933105,872.311035 
	C4797.169434,865.993469 4800.028320,863.317871 4805.044922,861.730225 
	C4824.448242,855.588684 4831.138672,847.549500 4831.499023,827.073914 
	C4832.055664,795.427063 4831.885742,763.760498 4831.556152,732.107178 
	C4831.303223,707.826416 4830.280273,683.554443 4829.685059,659.276428 
	C4828.958496,629.669678 4828.377441,600.059265 4827.601074,570.453857 
	C4827.427246,563.822205 4826.420410,557.210083 4826.300293,550.579895 
	C4826.119141,540.599915 4820.779297,534.495728 4812.168457,530.754944 
	C4808.833008,529.306030 4805.239746,528.452026 4801.092773,527.109741 
	C4801.092773,523.245178 4801.092773,519.419922 4801.092773,514.421082 
	C4805.219727,514.181091 4809.399414,513.729431 4813.579102,513.726257 
	C4873.560547,513.680298 4933.542480,513.614319 4993.523926,513.751953 
	C5008.296387,513.785828 5022.683594,511.786774 5036.859375,507.780060 
	C5040.612305,506.719391 5044.479004,506.063171 5048.986816,505.068237 
	C5049.373047,507.867950 5049.631348,509.740936 5049.835938,512.431030 
z"/>
<path fill="#1F4D83" opacity="1.000000" stroke="none" 
	d="
M1180.748535,574.958008 
	C1197.034058,535.199463 1227.829346,516.055054 1268.036865,509.973755 
	C1289.988770,506.653534 1311.821045,508.066498 1333.199341,514.185913 
	C1339.237549,515.914307 1344.973999,518.705627 1350.831909,521.051575 
	C1353.537354,522.135010 1356.202271,523.319641 1359.948853,524.909668 
	C1364.951294,512.301331 1374.421753,507.212067 1387.627441,507.379608 
	C1387.627441,542.684753 1387.627441,577.797607 1387.627441,613.609619 
	C1381.166260,613.609619 1375.400879,613.609619 1369.517822,613.609619 
	C1368.233521,605.144287 1367.335449,597.268127 1365.803833,589.517151 
	C1362.054565,570.542175 1353.245483,554.663635 1337.181763,543.138000 
	C1327.110962,535.912231 1316.163086,531.563782 1303.752686,531.904907 
	C1294.482666,532.159790 1285.072144,532.340271 1276.005859,534.049011 
	C1245.519531,539.794983 1230.795166,564.227112 1227.755249,591.449036 
	C1225.011963,616.013367 1236.370605,633.790344 1254.674316,648.074219 
	C1269.709595,659.807678 1286.678345,668.302429 1303.978516,676.243225 
	C1329.063599,687.757324 1354.431641,698.829895 1375.418213,717.543030 
	C1393.719116,733.861389 1404.081787,753.588257 1404.447632,778.578674 
	C1404.761108,799.983276 1398.566772,819.147644 1387.351929,837.019897 
	C1374.926025,856.822021 1356.589966,869.601074 1335.171875,876.909973 
	C1281.050781,895.378906 1227.836548,892.121216 1176.225464,866.949280 
	C1172.084351,864.929504 1167.978027,862.838379 1162.887817,860.297302 
	C1161.124268,872.143188 1161.006348,885.170471 1144.219360,883.752808 
	C1141.895142,876.413818 1141.161377,771.900635 1143.356201,757.215332 
	C1148.952759,757.215332 1154.690063,757.215332 1161.388428,757.215332 
	C1162.233765,762.365173 1163.065063,767.517944 1163.926880,772.665588 
	C1167.987183,796.917786 1174.687378,820.084351 1191.364990,839.125610 
	C1203.340698,852.798645 1218.063110,861.833008 1235.873413,865.894653 
	C1256.640625,870.630615 1277.505737,871.950134 1298.056396,865.764038 
	C1337.100098,854.011292 1353.487793,826.796448 1347.133301,789.423523 
	C1344.216309,772.267395 1334.573242,757.311768 1319.641235,746.792480 
	C1302.575562,734.770203 1282.873291,728.198853 1264.015869,719.923035 
	C1246.599976,712.279846 1229.419800,704.401611 1214.438965,692.364807 
	C1194.371216,676.240662 1179.432373,656.897583 1175.096924,630.826721 
	C1172.374756,614.456665 1174.638916,598.358398 1178.580322,582.426086 
	C1179.139648,580.164917 1179.825684,577.934937 1180.748535,574.958008 
z"/>
<path fill="#1F4D83" opacity="1.000000" stroke="none" 
	d="
M3382.814941,805.017700 
	C3388.771240,819.595703 3394.230469,833.547363 3400.088379,847.329773 
	C3404.149170,856.884766 3410.465088,864.375244 3421.572754,866.772705 
	C3421.572754,870.834656 3421.572754,874.641602 3421.572754,879.726135 
	C3415.323730,879.726135 3409.651855,880.367004 3404.169678,879.619324 
	C3374.432129,875.564209 3344.602783,879.478821 3314.281250,879.617493 
	C3314.281250,874.680420 3314.281250,871.120667 3314.281250,866.867676 
	C3319.823486,865.245544 3325.399902,863.101929 3327.947510,857.001526 
	C3330.757812,850.271179 3331.223633,843.270752 3329.076416,836.444702 
	C3325.783203,825.977539 3321.977295,815.665588 3318.178467,805.365356 
	C3314.152344,794.448364 3309.879883,783.622131 3305.551270,772.329956 
	C3267.063965,772.329956 3228.846436,772.329956 3190.583984,772.329956 
	C3189.908691,773.153809 3188.979492,773.817139 3188.709717,774.685364 
	C3182.502930,794.666870 3174.001221,813.940186 3171.338379,835.006958 
	C3169.178467,852.096802 3172.304443,858.406799 3188.995605,865.488281 
	C3188.995605,868.949829 3188.995605,872.704895 3188.995605,876.717163 
	C3158.572754,876.717163 3128.864746,876.717163 3098.255859,876.717163 
	C3098.062500,873.009949 3097.878174,869.480408 3097.680664,865.694458 
	C3119.834229,852.444275 3129.633545,830.170715 3139.026611,808.291260 
	C3153.458008,774.676453 3166.223145,740.346924 3179.728760,706.333801 
	C3199.018311,657.753784 3218.336426,609.184875 3237.645508,560.612671 
	C3243.665771,545.468689 3249.692871,530.327515 3255.729980,515.190247 
	C3256.346436,513.644348 3256.753906,511.876373 3257.792236,510.671295 
	C3259.187012,509.052582 3261.066406,506.866241 3262.802246,506.806915 
	C3264.505371,506.748718 3266.615723,508.780121 3267.941406,510.392792 
	C3269.152832,511.866760 3269.578369,513.997803 3270.306396,515.856323 
	C3294.947998,578.766968 3319.658936,641.650574 3344.190430,704.604004 
	C3357.118408,737.779236 3369.732422,771.076904 3382.814941,805.017700 
M3284.836182,704.213623 
	C3271.952637,675.246033 3263.952148,644.316345 3249.430908,613.568481 
	C3232.607178,658.455688 3216.593018,701.182922 3200.542969,744.005798 
	C3210.685059,746.551331 3291.677246,746.260742 3299.943115,743.628662 
	C3295.091309,730.951477 3290.250488,718.303101 3284.836182,704.213623 
z"/>
<path fill="#1F4D83" opacity="1.000000" stroke="none" 
	d="
M3932.089844,877.719116 
	C3928.576416,877.522583 3925.963623,877.327820 3923.546143,877.147644 
	C3920.392334,866.237488 3920.859863,866.536743 3928.535645,860.370911 
	C3934.135986,855.872437 3939.110840,850.271118 3943.300781,844.401855 
	C3955.567871,827.218079 3963.541992,807.725159 3971.613037,788.395569 
	C3981.872070,763.825806 3991.613281,739.036072 4001.327637,714.243225 
	C4022.447510,660.339050 4043.380127,606.361450 4064.457275,552.440430 
	C4069.302246,540.046448 4074.416260,527.757690 4079.418701,515.425415 
	C4080.168945,513.575500 4080.821289,511.658875 4081.803223,509.934998 
	C4084.627930,504.976227 4089.837646,504.965637 4092.393311,510.080200 
	C4094.470703,514.237366 4096.031250,518.659119 4097.721191,523.002380 
	C4115.211914,567.954346 4132.694824,612.909058 4150.152832,657.873657 
	C4162.916016,690.746643 4175.654297,723.629517 4188.375488,756.518982 
	C4199.654297,785.678650 4210.731934,814.917358 4222.223145,843.992920 
	C4227.405762,857.105774 4232.560547,861.884277 4244.999023,867.046692 
	C4244.999023,870.563843 4244.999023,874.364746 4244.999023,878.971680 
	C4227.047363,881.352905 4209.606934,877.079590 4192.129395,877.725769 
	C4174.596191,878.373962 4157.068848,879.169922 4138.429199,879.947388 
	C4138.176758,874.994690 4137.984375,871.215515 4137.805176,867.702637 
	C4151.833496,861.192078 4156.567383,852.463623 4153.078613,837.904297 
	C4150.918945,828.890686 4147.423340,820.173340 4144.200195,811.443848 
	C4139.379395,798.387085 4134.270508,785.436646 4129.208008,772.242004 
	C4090.298828,772.242004 4052.096436,772.242004 4012.809814,772.242004 
	C4007.219238,792.375427 3998.272949,811.415649 3995.808594,832.412781 
	C3995.346191,836.352722 3994.453125,840.344238 3994.716309,844.247498 
	C3995.432617,854.878906 4000.536377,862.451416 4011.734131,865.103149 
	C4011.734131,869.071838 4011.734131,872.614319 4011.734131,876.905518 
	C3998.083984,879.338867 3984.973877,875.155212 3971.820068,875.741638 
	C3958.873291,876.318726 3945.933594,877.054749 3932.089844,877.719116 
M4031.201416,720.125244 
	C4028.181641,728.078125 4025.162109,736.031006 4022.087891,744.127197 
	C4033.512207,746.634277 4113.897461,746.186035 4120.995117,743.846558 
	C4117.828613,727.597290 4076.258057,622.037354 4070.206055,615.734497 
	C4057.313721,650.272156 4044.545410,684.477539 4031.201416,720.125244 
z"/>
<path fill="#1F4D83" opacity="1.000000" stroke="none" 
	d="
M5877.176758,697.261963 
	C5867.263184,709.608459 5864.861816,722.964050 5865.361328,737.930908 
	C5866.261230,764.900574 5865.603027,791.921814 5865.631836,818.921509 
	C5865.636719,823.585449 5865.472168,828.287964 5865.986816,832.905823 
	C5867.544922,846.898315 5873.927246,857.465881 5887.893066,862.305786 
	C5890.082031,863.064331 5892.236328,863.922485 5895.013672,864.961975 
	C5895.013672,868.745667 5895.013672,872.533752 5895.013672,876.718567 
	C5855.396484,876.718567 5816.343262,876.718567 5777.310547,876.718567 
	C5775.388184,867.383545 5775.804688,865.710510 5782.760742,863.789612 
	C5801.356445,858.654724 5809.214844,845.406738 5809.491211,827.439270 
	C5809.988281,795.114075 5809.734375,762.775208 5809.502930,730.444092 
	C5809.478516,726.993652 5808.168457,723.165222 5806.360840,720.174011 
	C5785.520020,685.696167 5764.423828,651.372986 5743.488281,616.952576 
	C5731.547852,597.320374 5719.776367,577.585083 5707.930664,557.895081 
	C5701.563965,547.312317 5695.000977,536.948486 5684.982910,529.215088 
	C5679.466309,524.956421 5681.905762,519.097900 5682.603027,512.819153 
	C5700.444824,513.303101 5717.942871,514.131348 5735.442383,514.152100 
	C5752.619141,514.172424 5769.796875,513.371948 5787.621094,512.915161 
	C5787.621094,517.090576 5787.621094,520.610168 5787.621094,524.713440 
	C5786.036133,525.518372 5784.281738,526.349731 5782.582520,527.282410 
	C5776.822754,530.444336 5773.981445,535.259766 5773.832520,541.904846 
	C5773.626465,551.116638 5775.563965,559.919312 5779.938965,567.842041 
	C5795.871582,596.694092 5812.166504,625.345825 5828.333496,654.068420 
	C5832.906250,662.191650 5837.465332,670.322937 5842.117676,678.400330 
	C5843.569824,680.922424 5845.308105,683.280151 5847.487305,686.579285 
	C5849.576660,683.761047 5851.297363,681.859863 5852.548828,679.688232 
	C5869.659180,649.991577 5886.710938,620.261108 5903.760742,590.529602 
	C5907.896484,583.316895 5912.537109,576.322510 5915.918945,568.768372 
	C5919.152344,561.545959 5921.928223,553.884277 5923.330078,546.130981 
	C5925.433594,534.495850 5920.809570,528.638123 5909.318848,526.039734 
	C5907.392578,525.604187 5905.409668,525.422852 5902.594238,524.992859 
	C5902.594238,520.510254 5902.594238,516.105652 5902.594238,511.282349 
	C5933.999023,511.282349 5965.041992,511.282349 5997.139648,511.282349 
	C5997.335938,515.455139 5997.532227,519.621704 5997.749023,524.219849 
	C5976.698730,534.190918 5966.250488,553.585022 5954.668457,571.693298 
	C5934.219238,603.666199 5914.393066,636.038269 5894.408203,668.306274 
	C5888.623535,677.646240 5883.184570,687.200500 5877.176758,697.261963 
z"/>
<path fill="#1F4D83" opacity="1.000000" stroke="none" 
	d="
M1012.103699,612.168213 
	C991.589905,644.967285 971.529358,677.194031 951.326782,709.331665 
	C947.851318,714.860291 946.154419,720.492554 946.209045,727.138916 
	C946.463684,758.130127 946.207947,789.125244 946.414734,820.117188 
	C946.456543,826.389771 947.244263,832.749695 948.506287,838.901550 
	C950.740234,849.790955 957.349548,857.344482 967.756165,861.430969 
	C970.800354,862.626404 973.899902,863.680847 977.226562,864.891785 
	C977.226562,868.899780 977.226562,872.463806 977.226562,877.044861 
	C956.943970,879.312927 937.169983,874.958435 917.366333,875.703064 
	C897.505066,876.449951 877.641724,877.141052 856.008057,877.920471 
	C857.228882,872.665222 858.076233,869.017639 858.954102,865.238770 
	C861.884094,864.307007 864.391724,863.508667 866.900085,862.712158 
	C883.042053,857.585876 891.389038,847.279541 891.557678,830.351074 
	C891.889709,797.028320 891.742981,763.699341 891.532654,730.374634 
	C891.510864,726.915405 890.439148,723.037048 888.653625,720.077698 
	C854.601440,663.640259 820.505066,607.228027 786.011597,551.059937 
	C781.397339,543.546204 775.368896,536.421875 768.564148,530.871887 
	C762.220276,525.697571 761.268494,520.569153 763.223511,513.271606 
	C798.876648,513.271606 834.281433,513.271606 869.798645,513.271606 
	C873.059875,522.081421 872.760132,523.028137 865.295654,526.876038 
	C857.012878,531.145813 853.781738,536.166992 855.885498,545.468567 
	C857.995361,554.797180 860.471191,564.456421 865.014587,572.750183 
	C885.484924,610.117676 906.744629,647.052734 927.741211,684.131470 
	C928.056824,684.688965 928.645813,685.091675 929.995422,686.480774 
	C931.809326,684.119873 933.765686,682.081482 935.141357,679.706787 
	C955.161499,645.145996 975.345825,610.675903 994.888367,575.846008 
	C999.543762,567.548767 1002.934082,558.247437 1005.236023,548.992432 
	C1008.739807,534.905640 1003.770325,528.385925 989.562561,525.809448 
	C988.260498,525.573364 986.947449,525.397766 984.453369,525.009399 
	C984.245361,520.701294 984.032593,516.295654 983.757263,510.593872 
	C1000.253723,511.176544 1015.729370,512.139526 1031.205811,512.153015 
	C1046.765503,512.166565 1062.326050,511.235077 1077.743286,510.722504 
	C1081.403320,522.092651 1081.060303,523.672424 1072.152222,528.836731 
	C1062.346191,534.521484 1055.041504,542.752380 1049.128296,552.020447 
	C1036.597046,571.661621 1024.678589,591.693848 1012.103699,612.168213 
z"/>
<path fill="#1E4B80" opacity="1.000000" stroke="none" 
	d="
M2766.285156,898.225220 
	C2774.927979,896.620483 2782.760254,895.281372 2790.438477,893.334961 
	C2801.051025,890.644653 2811.492920,887.270447 2822.126465,884.675903 
	C2825.547607,883.841125 2829.344482,884.545105 2833.518311,884.545105 
	C2832.806396,887.673462 2832.178711,890.431091 2831.880859,891.740051 
	C2816.239990,897.075684 2801.461914,901.930725 2786.818604,907.162109 
	C2770.521973,912.984192 2754.702881,914.381714 2738.783691,905.470642 
	C2727.353027,899.072083 2715.371094,898.367981 2703.679688,905.603638 
	C2701.992188,906.647888 2700.065430,907.297302 2698.294678,908.216797 
	C2685.323975,914.951965 2672.203857,914.998108 2658.885010,909.271851 
	C2654.006836,907.174561 2648.927490,905.522705 2644.129639,903.264526 
	C2635.942871,899.411316 2627.746826,899.865845 2620.132324,903.934143 
	C2599.491699,914.962158 2579.305420,912.170166 2558.666504,903.784485 
	C2547.671875,899.317322 2536.030518,896.442322 2523.992188,892.630554 
	C2523.992188,890.900879 2523.992188,888.378784 2523.992188,885.798035 
	C2525.153809,885.264038 2525.995605,884.582092 2526.885742,884.511780 
	C2541.973877,883.319885 2555.673828,888.685303 2569.411621,893.723389 
	C2581.923096,898.311890 2594.489258,900.534058 2607.313721,895.169067 
	C2610.364746,893.892578 2613.240967,892.163086 2616.111084,890.493652 
	C2629.029297,882.979370 2642.271484,881.193176 2656.105469,887.942322 
	C2658.190430,888.959412 2660.464111,889.581482 2662.605957,890.491211 
	C2673.559082,895.143860 2684.910645,896.168457 2695.501709,890.666138 
	C2714.282715,880.908875 2731.730713,882.788330 2749.358398,893.515320 
	C2753.958252,896.314514 2760.016846,896.716858 2766.285156,898.225220 
z"/>
<path fill="#1E4B80" opacity="1.000000" stroke="none" 
	d="
M2631.091309,853.654968 
	C2649.621338,852.807800 2667.239746,851.285339 2684.837402,851.499023 
	C2726.478271,852.004700 2767.872559,855.654846 2808.695557,864.322144 
	C2816.150146,865.904907 2823.489014,868.049805 2830.848633,870.054932 
	C2835.282959,871.263062 2836.677490,874.065918 2834.121094,879.699951 
	C2784.160889,870.120422 2733.416016,865.553101 2682.164307,865.570496 
	C2630.763672,865.587952 2580.057129,871.970581 2529.524170,879.695374 
	C2527.153809,872.031189 2527.001465,871.480408 2532.923584,869.841980 
	C2543.800781,866.832581 2554.765381,863.811035 2565.894531,862.108826 
	C2587.245605,858.843262 2608.737061,856.496704 2631.091309,853.654968 
z"/>
</svg>