<?xml version="1.0" encoding="UTF-8"?>
<svg xmlns="http://www.w3.org/2000/svg" id="Laag_1" data-name="Laag 1" version="1.1" viewBox="0 0 218.6 84.1">
  <g>
    <rect style="fill: #183c71; stroke-width: 0" x="0" y="38.8" width="5.5" height="11.1"/>
    <path style="fill: #183c71; stroke-width: 0" d="M30.6,0c-.9,0-1.9,0-2.8.1-1.9.2-3.8.5-5.5,1-1.9.5-3.8,1.3-5.5,2.2-1.3.7-2.5,1.4-3.7,2.2-.6.5-1.3.9-1.9,1.4-1.5,1.2-2.9,2.6-4.1,4.1-.5.6-1,1.2-1.4,1.9-.8,1.2-1.5,2.4-2.2,3.7-.9,1.8-1.6,3.6-2.2,5.5-.5,1.8-.8,3.6-1,5.5,0,.9-.1,1.8-.1,2.8v2.8h22.6c-.2-.7-.4-1.4-.5-2.1,0-.2,0-.4,0-.6s0-.4,0-.6c0-.8.2-1.5.5-2.2H5.8c.2-1.9.7-3.8,1.3-5.5.7-2,1.6-3.8,2.8-5.5.4-.6.9-1.2,1.3-1.8,1.1-1.4,2.3-2.6,3.7-3.7.6-.5,1.2-.9,1.8-1.3,1.7-1.1,3.6-2.1,5.5-2.8,1.8-.6,3.6-1,5.5-1.3.8,0,1.6-.1,2.5-.2h3.1V.1c-.9,0-1.8-.1-2.8-.1h0Z"/>
    <g>
      <path style="fill: #183c71; stroke-width: 0" d="M70.4,32.5v1.1h4.8v3.4h-4.8v12.8h-3.9v-12.8h-2.3v-3.4h2.3v-1c0-4.2,2.2-6.7,6.4-6.7s2.1.1,3.1.5v3.4c-.8-.3-1.7-.5-2.5-.5-2.1,0-3.1,1.2-3.1,3.2Z"/>
      <path style="fill: #183c71; stroke-width: 0" d="M90.7,33.1v3.8c-.5-.2-1.1-.2-1.7-.2-1.7,0-3.2.8-4.3,2.5v10.7h-3.9v-16.4h3.3l.3,1.9c1.4-1.7,3-2.4,4.8-2.4s1.1,0,1.4.2h0Z"/>
      <path style="fill: #183c71; stroke-width: 0" d="M112,33.5c-1.7,9.2-6.7,17.3-10.6,22.1h-4.4c1.3-1.6,3.1-3.7,4.5-5.7l-6.7-16.4h4.4l4.6,12.5c1.9-3.6,3.4-7.8,4.1-12.5h4.2,0Z"/>
      <path style="fill: #183c71; stroke-width: 0" d="M117.1,49.3v-3.4c1.8.9,3.9,1.3,5.9,1.3s3.6-.6,3.6-1.9-.8-1.7-3.9-2.2c-3.8-.7-5.6-2-5.6-5s2.4-5.2,6.9-5.2,3.9.2,5.5.8v3.3c-1.9-.7-3.5-.9-5.4-.9s-3.2.5-3.2,1.7.8,1.5,4.1,2.1c3.8.6,5.4,2.1,5.4,5.2s-2.6,5.3-7.2,5.3-4.6-.4-6.1-1h0Z"/>
      <path style="fill: #183c71; stroke-width: 0" d="M151.3,47c.4,0,.8,0,1.2-.2v3.1c-.8.2-1.5.3-2.4.3-1.6,0-2.7-.5-3.8-2.1l-3.2-5.1-2.3,2.3v4.5h-3.9v-23.5h3.9v14.4l6.9-7.3h4.9l-6.7,6.9,3.9,5.9c.4.6.9.8,1.5.8h0Z"/>
      <path style="fill: #183c71; stroke-width: 0" d="M172.1,40.9c0,.7,0,1.3,0,2h-11.3c.4,2.8,2.1,4.2,5.3,4.2s3.5-.3,5.2-1v3.2c-1.9.7-3.5,1-5.9,1-5.5,0-8.5-3.2-8.5-8.6s3-8.8,8-8.8,7.2,2.6,7.2,7.9ZM160.8,40.1h7.6c-.1-2.8-1.4-3.9-3.6-3.9s-3.6,1.3-4,3.9h0Z"/>
    </g>
  </g>
  <g>
    <path class="cls-1" d="M49.8,27.7c-.3-1.9-.8-3.8-1.7-5.5-.9-2-2.2-3.7-3.7-5.3l-.3-.3c-1.5-1.5-3.3-2.8-5.3-3.7-1.7-.8-3.6-1.4-5.5-1.7-.7,0-1.4-.2-2.2-.2h-1.2c-.7,0-1.4,0-2.2.2-1.9.3-3.8.8-5.5,1.7-2,.9-3.7,2.2-5.3,3.7l-.3.3c-1.5,1.5-2.8,3.3-3.7,5.3h6.4c.8-1.1,1.7-2,2.8-2.8,1.6-1.2,3.5-2.1,5.5-2.5.7-.1,1.3-.2,2-.2.3,0,.5,0,.8,0s.5,0,.8,0c.7,0,1.3.1,2,.2,2.1.4,3.9,1.3,5.5,2.5,1.1.8,2,1.7,2.8,2.8,1.2,1.6,2.1,3.5,2.5,5.5.1.7.2,1.3.2,2,0,.3,0,.5,0,.8s0,.5,0,.8v13.1h-13.1c-.3,0-.5,0-.8,0s-.5,0-.8,0c-.7,0-1.3-.1-2-.2-2.1-.4-3.9-1.3-5.5-2.5-1.1-.8-2-1.7-2.8-2.8h-6.4c.9,2,2.2,3.7,3.7,5.3,0,0,.2.2.3.3,1.5,1.5,3.3,2.8,5.3,3.7,1.7.8,3.6,1.4,5.5,1.7.7,0,1.4.2,2.2.2h20v-20c0-.7,0-1.4-.2-2.2h0Z"/>
    <g>
      <path style="fill: #35a8e0; stroke-width: 0" d="M218.4,61.6c-1.7,9.2-6.7,17.3-10.6,22.1h-4.4c1.3-1.6,3.1-3.7,4.5-5.7l-6.7-16.4h4.4l4.6,12.5c1.9-3.6,3.4-7.8,4.1-12.5h4.2Z"/>
      <path style="fill: #35a8e0; stroke-width: 0" d="M74,74.9v2.9c-1,.3-1.9.4-2.8.4-1.9,0-2.8-.8-3.2-2-1.3,1.4-3.2,2.1-5.2,2.1-4.7,0-6.9-3.4-6.9-8.6s2.9-8.8,8.2-8.8,3.3.4,4.6,1.3l.3-.8h2.6v12.2c0,1.1.3,1.5,1.1,1.5s.8,0,1.3-.2h0ZM67.7,73v-7.8c-1-.7-2.1-1-3.4-1-3,0-4.5,2.2-4.5,5.4s1.2,5.3,3.9,5.3,2.8-.5,4-2h0Z"/>
      <path style="fill: #35a8e0; stroke-width: 0" d="M95,74.9c.4,0,.8,0,1.2-.2v3.1c-.8.2-1.5.3-2.4.3-1.6,0-2.7-.5-3.8-2.1l-3.2-5.1-2.3,2.3v4.5h-3.9v-23.5h3.9v14.4l7.3-7.5h4.9l-7.1,7.1,3.9,5.9c.4.6.9.8,1.5.8h0Z"/>
      <path style="fill: #35a8e0; stroke-width: 0" d="M119.4,74.9v2.9c-1,.3-1.9.4-2.8.4-1.9,0-2.8-.8-3.2-2-1.4,1.4-3.2,2.1-5.2,2.1-4.7,0-6.9-3.4-6.9-8.6s2.9-8.8,8.2-8.8,3.3.4,4.6,1.3l.3-.8h2.6v12.2c0,1.1.3,1.5,1.1,1.5s.8,0,1.3-.2h0ZM113.1,73v-7.8c-1-.7-2.1-1-3.4-1-3,0-4.5,2.2-4.5,5.4s1.2,5.3,3.9,5.3,2.9-.5,4-2h0Z"/>
      <path style="fill: #35a8e0; stroke-width: 0" d="M143.1,74.9v2.9c-.9.3-1.8.4-2.8.4-1.8,0-2.7-.8-3.1-2-1.3,1.3-3.3,2.1-5.3,2.1-4.5,0-6.9-3-6.9-8.6s3.1-8.8,8.3-8.8,2.5.1,3.6.5v-7h3.9v19.2c0,1.1.3,1.5,1.1,1.5s.8,0,1.2-.2h0ZM136.9,73v-8.3c-1-.3-2.1-.5-3.4-.5-2.9,0-4.6,2-4.6,5.4s1.2,5.4,3.9,5.4,3-.7,4.1-2Z"/>
      <path style="fill: #35a8e0; stroke-width: 0" d="M164.1,68.8c0,.7,0,1.3,0,2h-11.3c.4,2.8,2.1,4.2,5.3,4.2s3.5-.3,5.2-1v3.2c-1.9.7-3.5,1-5.9,1-5.5,0-8.5-3.2-8.5-8.6s3-8.8,8-8.8,7.2,2.6,7.2,7.9h0ZM152.8,68h7.6c-.1-2.8-1.4-3.9-3.6-3.9s-3.6,1.3-4,3.9h0Z"/>
      <path style="fill: #35a8e0; stroke-width: 0" d="M197.1,74.9v2.9c-.8.2-1.8.4-2.7.4-3,0-3.5-1.8-3.5-4.3v-6.2c0-2.3-.8-3.5-2.6-3.5s-2.3.6-3.2,1.9v11.7h-3.9v-10.5c0-2-.9-3.1-2.7-3.1s-2.4.6-3.3,1.9v11.7h-3.9v-16.4h2.5l.8,1.8c1.4-1.6,3-2.3,5.2-2.3s3.8,1.1,4.6,2.3c1.4-1.6,3.1-2.3,5.1-2.3,3.8,0,5.2,2.5,5.2,6.4v6.3c0,1.1.4,1.5,1.1,1.5s.8,0,1.2-.2h0Z"/>
    </g>
  </g>
  <circle style="fill: #e50064; stroke-width: 0" cx="30.6" cy="30.5" r="2.8"/>
</svg>