<svg version="1.1" id="Layer_1" xmlns="http://www.w3.org/2000/svg" xmlns:xlink="http://www.w3.org/1999/xlink" x="0px" y="0px"
	 width="100%" viewBox="0 0 496 496" enable-background="new 0 0 500 500" xml:space="preserve">
<path fill="#000000" opacity="1.000000" stroke="none" 
	d="
M361.032806,129.349472 
	C339.101685,127.701012 330.292755,138.424515 331.213898,158.410004 
	C331.896118,173.211868 330.535828,188.125366 331.534363,202.891144 
	C333.112000,226.220291 314.822937,249.530746 285.602875,248.990036 
	C265.110016,248.610809 244.604095,248.989075 224.104431,248.912552 
	C209.155548,248.856735 197.691360,254.752838 190.453995,268.101959 
	C187.271088,273.972778 186.421219,280.427917 186.384872,286.945251 
	C186.272430,307.111267 186.389221,327.278473 186.325592,347.444916 
	C186.268494,365.542480 172.468918,379.249054 154.322495,379.335297 
	C146.322678,379.373352 138.322540,379.338715 130.322601,379.359009 
	C127.846931,379.365295 125.610992,379.343872 125.690216,375.810181 
	C125.764915,372.478241 127.989929,372.740295 130.174286,372.668854 
	C139.157547,372.375183 148.203461,373.509491 157.121811,372.077362 
	C171.424042,369.780701 179.568405,360.051331 179.628647,345.455841 
	C179.711197,325.456207 179.621704,305.455933 179.659027,285.456024 
	C179.705933,260.323975 197.914597,241.906693 223.105225,241.727676 
	C244.604111,241.574905 266.104980,241.724487 287.604858,241.685135 
	C309.323486,241.645370 324.595459,226.315765 324.657593,204.482391 
	C324.707855,186.815903 324.639374,169.149094 324.673065,151.482513 
	C324.706085,134.159302 336.155151,122.721313 353.478943,122.656425 
	C359.812073,122.632706 366.145508,122.683807 372.478668,122.662575 
	C374.768616,122.654900 376.289093,123.204933 376.297424,125.989532 
	C376.305695,128.754486 374.852966,129.368866 372.524475,129.341339 
	C368.858734,129.298004 365.192017,129.342102 361.032806,129.349472 
z"/>
<path fill="#000000" opacity="1.000000" stroke="none" 
	d="
M331.325043,334.460297 
	C331.303284,340.572632 331.127045,346.240540 331.351166,351.892578 
	C331.508850,355.870453 330.289978,357.508087 326.011719,357.445007 
	C316.837158,357.309753 316.825165,357.521240 316.828094,348.217529 
	C316.833130,332.399597 316.822174,316.581573 316.877136,300.763794 
	C316.898407,294.647552 316.979645,294.869263 324.647125,294.601807 
	C329.319611,294.438812 331.919434,295.350616 331.388214,300.816528 
	C330.955444,305.269623 331.479401,309.807465 331.260193,314.292114 
	C331.082336,317.930786 332.741821,318.910706 336.042816,318.792694 
	C340.698914,318.626282 345.370880,318.616364 350.025879,318.798920 
	C353.440552,318.932800 354.852356,317.708740 354.707031,314.183716 
	C354.501465,309.197388 354.768982,304.193054 354.638275,299.201569 
	C354.558014,296.137177 355.502350,294.745667 358.857330,294.620239 
	C368.452759,294.261414 368.368500,294.127106 368.426086,303.601776 
	C368.521179,319.248199 368.762238,334.893677 368.854706,350.540070 
	C368.867859,352.767273 369.683075,355.972046 367.163757,356.818756 
	C363.584656,358.021637 359.555023,357.872375 355.862457,356.777618 
	C354.252563,356.300354 354.719818,354.185242 354.705505,352.736877 
	C354.648041,346.909698 354.606262,341.081024 354.680969,335.254486 
	C354.713837,332.692291 354.009033,331.033539 351.108337,331.054718 
	C345.614685,331.094879 340.120728,331.090759 334.627014,331.123322 
	C332.719818,331.134613 331.403046,331.870697 331.325043,334.460297 
z"/>
<path fill="#000000" opacity="1.000000" stroke="none" 
	d="
M210.329102,201.614288 
	C207.649094,197.364212 205.132080,193.441650 202.706635,189.463272 
	C201.376495,187.281448 199.511444,186.643539 197.168045,187.286880 
	C194.719025,187.959229 195.191071,190.098557 195.155884,191.836639 
	C195.064926,196.330154 195.026306,200.828140 195.123062,205.320969 
	C195.196854,208.747757 194.115570,210.416733 190.262817,210.450546 
	C180.710327,210.534378 180.711197,210.703934 180.709473,201.148392 
	C180.706696,185.664810 180.698181,170.181229 180.705490,154.697647 
	C180.708801,147.687683 180.726501,147.547928 187.949829,147.708862 
	C194.747574,147.860336 201.543533,147.163864 208.352539,148.473175 
	C216.457245,150.031647 222.517227,153.758270 224.033890,162.278152 
	C225.535370,170.712875 222.991928,177.750076 215.183899,182.261673 
	C214.762299,182.505264 214.391296,182.836487 213.531067,183.469620 
	C219.298141,192.153061 224.934982,200.640442 230.677856,209.287445 
	C220.076797,212.474579 216.122818,210.930481 210.329102,201.614288 
M209.729279,165.036301 
	C207.763336,161.099915 201.299957,158.257248 197.280960,159.469604 
	C195.974670,159.863663 195.279053,160.623856 195.264740,161.913864 
	C195.226242,165.380966 195.226212,168.849442 195.283630,172.316177 
	C195.305038,173.608429 196.068970,174.334244 197.343765,174.743164 
	C203.888153,176.842468 209.639954,172.763016 209.729279,165.036301 
z"/>
<path fill="#000000" opacity="1.000000" stroke="none" 
	d="
M269.577393,322.221252 
	C265.086365,315.217102 264.803375,308.188110 269.262268,301.765076 
	C274.641235,294.016632 283.060211,293.204437 291.654510,293.964783 
	C294.273804,294.196503 296.867767,295.001953 299.410492,295.756409 
	C306.691833,297.916809 306.739166,298.323090 303.903534,305.305908 
	C302.637787,308.422943 301.075165,309.467468 297.895020,307.999298 
	C294.690155,306.519684 291.187805,305.918243 287.704498,305.845490 
	C284.671997,305.782227 281.541016,306.303070 280.510742,309.924561 
	C279.572296,313.223175 281.402283,315.423920 283.996735,316.927338 
	C287.590851,319.010071 291.355469,320.796112 295.012695,322.772827 
	C304.721680,328.020416 308.385834,335.316254 306.134155,344.817261 
	C304.376801,352.232452 296.681732,357.671997 287.074371,358.272949 
	C282.063324,358.586395 277.135986,358.058502 272.213776,357.055664 
	C267.436951,356.082489 264.761505,353.802612 265.619812,348.530243 
	C265.935455,346.591156 265.316864,344.538330 266.363403,342.266113 
	C270.894165,343.512878 275.461029,344.783051 280.037384,346.018097 
	C280.996613,346.276947 281.986298,346.539276 282.969543,346.571960 
	C286.753113,346.697845 290.740509,346.434357 292.272064,342.376282 
	C293.953400,337.921387 290.431061,335.766693 287.186798,333.876373 
	C281.196472,330.385956 274.227692,328.403900 269.577393,322.221252 
z"/>
<path fill="#000000" opacity="1.000000" stroke="none" 
	d="
M250.685760,197.034424 
	C251.586334,189.450699 249.440567,183.238678 245.835815,177.162628 
	C241.338150,169.581528 237.388855,161.673416 233.263138,153.874588 
	C232.359924,152.167252 230.950241,150.572205 231.432785,148.187347 
	C235.344589,147.244690 239.320801,147.692169 243.262360,147.813156 
	C245.917511,147.894653 246.600952,150.253647 247.575974,152.144257 
	C250.822372,158.439026 254.035889,164.750763 257.744415,171.998825 
	C261.195496,165.447571 264.477814,160.058136 266.928864,154.313980 
	C269.133575,149.147095 272.232422,146.610718 277.936646,147.643036 
	C279.863556,147.991760 281.924744,147.309097 283.835999,148.229370 
	C284.921356,150.299530 283.380219,151.742569 282.573975,153.253601 
	C277.950378,161.918930 273.407501,170.635056 268.487762,179.131561 
	C265.880402,183.634567 264.583282,188.201843 264.970337,193.368744 
	C265.181244,196.184067 265.019196,199.028259 265.005554,201.859314 
	C264.964142,210.455902 264.954193,210.230637 256.594360,210.460068 
	C252.055206,210.584641 250.119934,209.153854 250.651184,204.514160 
	C250.914658,202.213211 250.690445,199.856415 250.685760,197.034424 
z"/>
<path fill="#000000" opacity="1.000000" stroke="none" 
	d="
M133.556976,175.228745 
	C133.444519,167.432129 133.340576,160.107559 133.221497,152.783249 
	C133.162567,149.159424 134.534714,147.463120 138.542282,147.590652 
	C147.030258,147.860779 155.547348,147.977997 164.024200,147.569901 
	C169.799591,147.291855 169.236664,150.679092 169.533188,154.515411 
	C169.867004,158.834122 167.935593,159.590439 164.296524,159.400772 
	C160.142746,159.184265 155.965561,159.452759 151.805405,159.310364 
	C148.731750,159.205170 147.199936,160.141510 147.265213,163.541367 
	C147.517136,176.660950 145.761124,174.353867 157.914413,174.596817 
	C159.080124,174.620117 160.246735,174.595428 161.412918,174.598053 
	C168.287842,174.613525 168.639923,175.117432 168.323776,182.041031 
	C168.188828,184.996628 167.042450,186.279144 164.102173,186.228928 
	C159.772034,186.154953 155.437973,186.292542 151.108536,186.200974 
	C148.324554,186.142090 147.233566,187.349762 147.283463,190.097504 
	C147.377213,195.260117 147.190002,200.428589 147.320358,205.589539 
	C147.403366,208.876251 146.346466,210.347656 142.770020,210.435593 
	C133.096268,210.673508 133.049973,210.818832 133.134964,201.175323 
	C133.209778,192.683258 133.412827,184.192322 133.556976,175.228745 
z"/>
<path fill="#000000" opacity="1.000000" stroke="none" 
	d="
M252.771820,357.055756 
	C237.956741,357.573883 240.863480,358.301819 240.708023,346.381287 
	C240.508728,331.098816 240.808151,315.809509 240.572235,300.528076 
	C240.502396,296.003937 241.838074,294.417572 246.463165,294.583557 
	C254.385406,294.867859 254.389023,294.611450 254.387756,302.421021 
	C254.385132,318.702942 254.410538,334.984894 254.361511,351.266663 
	C254.355728,353.182129 254.966721,355.304108 252.771820,357.055756 
z"/>
</svg>