<svg xmlns="http://www.w3.org/2000/svg" 
xmlns:xlink="http://www.w3.org/1999/xlink" 
width="500" 
zoomAndPan="magnify" 
viewBox="0 0 375 374.999991" 
height="500" 
preserveAspectRatio="xMidYMid meet" 
version="1.0">
<defs>
<g/>
<clipPath id="fd6053b492">
<path d="M 187.5 0 C 83.945312 0 0 83.945312 0 187.5 C 0 291.054688 83.945312 375 187.5 375 C 291.054688 375 375 291.054688 375 187.5 C 375 83.945312 291.054688 0 187.5 0 Z M 187.5 0 " 
clip-rule="nonzero"/>
</clipPath>
</defs>
<g clip-path="url(#fd6053b492)">
<path stroke-linecap="butt" 
transform="matrix(0.75, 0, 0, 0.75, 0.0000045, 0)" 
fill="none" 
stroke-linejoin="miter" 
d="M 249.999994 0 C 111.927078 0 -0.000006 111.927084 -0.000006 250 C -0.000006 388.072917 111.927078 500.000001 249.999994 500.000001 C 388.072911 500.000001 499.999995 388.072917 499.999995 250 C 499.999995 111.927084 388.072911 0 249.999994 0 Z M 249.999994 0 " 
stroke="#000000" 
stroke-width="20" 
stroke-opacity="1" 
stroke-miterlimit="4"/>
</g>
<g fill="#000000" 
fill-opacity="1">
<g transform="translate(68.842999, 148.515527)">
<g>
<path d="M 19.640625 0 L 7.390625 0 L 7.390625 -58.703125 L 41.03125 -58.703125 L 41.03125 -48.5 L 19.640625 -48.5 L 19.640625 -33.375 L 39.546875 -33.375 L 39.546875 -23.203125 L 19.640625 -23.203125 Z M 19.640625 0 "/>
</g>
</g>
</g>
<g fill="#000000" 
fill-opacity="1">
<g transform="translate(113.975649, 148.515527)">
<g>
<path d="M 19.828125 -32.640625 L 23.84375 -32.640625 C 27.78125 -32.640625 30.6875 -33.296875 32.5625 -34.609375 C 34.4375 -35.921875 35.375 -37.984375 35.375 -40.796875 C 35.375 -43.578125 34.414062 -45.554688 32.5 -46.734375 C 30.59375 -47.910156 27.628906 -48.5 23.609375 -48.5 L 19.828125 -48.5 Z M 19.828125 -22.53125 L 19.828125 0 L 7.390625 0 L 7.390625 -58.703125 L 24.5 -58.703125 C 32.46875 -58.703125 38.363281 -57.25 42.1875 -54.34375 C 46.019531 -51.4375 47.9375 -47.03125 47.9375 -41.125 C 47.9375 -37.664062 46.984375 -34.585938 45.078125 -31.890625 C 43.179688 -29.203125 40.492188 -27.097656 37.015625 -25.578125 C 45.847656 -12.378906 51.601562 -3.851562 54.28125 0 L 40.46875 0 L 26.46875 -22.53125 Z M 19.828125 -22.53125 "/>
</g>
</g>
</g>
<g fill="#000000" 
fill-opacity="1">
<g transform="translate(168.263319, 148.515527)">
<g>
<path d="M 25.65625 -34.53125 L 37.90625 -58.703125 L 51.3125 -58.703125 L 31.84375 -22.84375 L 31.84375 0 L 19.46875 0 L 19.46875 -22.453125 L 0 -58.703125 L 13.484375 -58.703125 Z M 25.65625 -34.53125 "/>
</g>
</g>
</g>
<g fill="#000000" 
fill-opacity="1">
<g transform="translate(170.71369, 288.16642)">
<g>
<path d="M 7.390625 0 L 7.390625 -58.703125 L 19.828125 -58.703125 L 19.828125 0 Z M 7.390625 0 "/>
</g>
</g>
</g>
<g fill="#000000" 
fill-opacity="1">
<g transform="translate(197.937833, 288.16642)">
<g>
<path d="M 42.046875 -16.296875 C 42.046875 -11.003906 40.132812 -6.832031 36.3125 -3.78125 C 32.5 -0.726562 27.191406 0.796875 20.390625 0.796875 C 14.128906 0.796875 8.59375 -0.378906 3.78125 -2.734375 L 3.78125 -14.296875 C 7.738281 -12.523438 11.085938 -11.273438 13.828125 -10.546875 C 16.578125 -9.828125 19.085938 -9.46875 21.359375 -9.46875 C 24.085938 -9.46875 26.179688 -9.988281 27.640625 -11.03125 C 29.097656 -12.082031 29.828125 -13.640625 29.828125 -15.703125 C 29.828125 -16.847656 29.503906 -17.867188 28.859375 -18.765625 C 28.222656 -19.660156 27.28125 -20.523438 26.03125 -21.359375 C 24.789062 -22.191406 22.257812 -23.519531 18.4375 -25.34375 C 14.84375 -27.019531 12.148438 -28.632812 10.359375 -30.1875 C 8.566406 -31.75 7.132812 -33.554688 6.0625 -35.609375 C 4.988281 -37.671875 4.453125 -40.082031 4.453125 -42.84375 C 4.453125 -48.039062 6.210938 -52.125 9.734375 -55.09375 C 13.253906 -58.0625 18.117188 -59.546875 24.328125 -59.546875 C 27.378906 -59.546875 30.289062 -59.179688 33.0625 -58.453125 C 35.832031 -57.734375 38.734375 -56.71875 41.765625 -55.40625 L 37.75 -45.734375 C 34.613281 -47.015625 32.019531 -47.910156 29.96875 -48.421875 C 27.925781 -48.929688 25.914062 -49.1875 23.9375 -49.1875 C 21.570312 -49.1875 19.757812 -48.632812 18.5 -47.53125 C 17.25 -46.4375 16.625 -45.007812 16.625 -43.25 C 16.625 -42.144531 16.878906 -41.1875 17.390625 -40.375 C 17.898438 -39.5625 18.707031 -38.769531 19.8125 -38 C 20.925781 -37.238281 23.554688 -35.867188 27.703125 -33.890625 C 33.191406 -31.265625 36.953125 -28.632812 38.984375 -26 C 41.023438 -23.363281 42.046875 -20.128906 42.046875 -16.296875 Z M 42.046875 -16.296875 "/>
</g>
</g>
</g>
<g fill="#000000" 
fill-opacity="1">
<g transform="translate(243.231096, 288.16642)">
<g>
<path d="M 55.484375 0 L 43.078125 0 L 43.078125 -25.34375 L 19.828125 -25.34375 L 19.828125 0 L 7.390625 0 L 7.390625 -58.703125 L 19.828125 -58.703125 L 19.828125 -35.703125 L 43.078125 -35.703125 L 43.078125 -58.703125 L 55.484375 -58.703125 Z M 55.484375 0 "/>
</g>
</g>
</g>
<path stroke-linecap="butt" 
transform="matrix(0.75, 0, 0, 0.75, 68.842999, 65.092995)" 
fill="none" 
stroke-linejoin="miter" 
d="M 0.00100109 321.417695 L 36.07392 321.417695 C 45.636421 321.417695 54.813505 317.620819 61.57913 310.855194 C 68.344756 304.089568 72.141631 294.912484 72.141631 285.344776 L 72.141631 204.84477 C 72.141631 177.782268 94.079132 155.844767 121.141634 155.844767 L 206.751015 155.844767 C 233.813516 155.844767 255.751018 133.907266 255.751018 106.844764 L 255.751018 35.334342 C 255.751018 27.287467 258.948935 19.573925 264.636435 13.886424 C 270.323936 8.193716 278.042686 5.001007 286.084353 5.001007 L 316.417689 5.001007 " 
stroke="#000000" 
stroke-width="10" 
stroke-opacity="1" 
stroke-miterlimit="4"/>
</svg>