<svg version="1.1" id="Layer_1" xmlns="http://www.w3.org/2000/svg" xmlns:xlink="http://www.w3.org/1999/xlink" x="0px" y="0px"
	 width="100%" viewBox="0 0 500 500" enable-background="new 0 0 500 500" xml:space="preserve">
<path fill="#F7F7F7" opacity="1.000000" stroke="none" 
	d="
M351.644531,122.828987 
	C359.917877,122.806343 367.742432,122.806343 375.789246,122.806343 
	C375.789246,124.935806 375.789246,126.872093 375.789246,129.205933 
	C368.761871,129.205933 361.806030,129.302872 354.853821,129.185379 
	C341.144684,128.953690 331.241211,136.738312 331.250153,152.854019 
	C331.260590,171.678055 331.236176,190.503815 330.992889,209.325806 
	C330.762207,227.173904 316.744507,241.854248 302.458252,245.894333 
	C296.981079,247.443222 291.151672,248.364182 285.466217,248.447784 
	C265.144440,248.746628 244.809631,248.870895 224.490952,248.479843 
	C202.415039,248.054977 185.808609,264.161163 186.148346,287.179962 
	C186.428604,306.169189 185.874023,325.173706 186.321472,344.156525 
	C186.656784,358.382812 180.833466,368.859619 169.000427,376.078979 
	C166.204254,377.784943 162.539612,378.724121 159.238113,378.824921 
	C148.275421,379.159637 137.296143,378.951416 126.162659,378.951416 
	C126.162659,376.969666 126.162659,375.012268 126.162659,372.794800 
	C134.985840,372.794800 143.635437,372.841797 152.284348,372.784790 
	C169.069946,372.674133 179.722626,362.023499 179.793045,345.291901 
	C179.883484,323.801483 179.586624,302.302490 180.107605,280.822968 
	C180.557938,262.255005 195.922195,245.521927 214.436035,242.832916 
	C220.331543,241.976624 226.388290,242.052094 232.372925,242.021118 
	C250.699326,241.926193 269.027740,242.114975 287.353088,241.946609 
	C302.367401,241.808685 314.385986,235.749466 320.845764,221.836105 
	C323.429535,216.271027 324.505798,209.607254 324.681427,203.398697 
	C325.180664,185.752335 324.768188,168.082153 324.894287,150.422638 
	C325.006073,134.764801 335.509033,123.878922 351.644531,122.828987 
z"/>
<path fill="#FAFAFA" opacity="1.000000" stroke="none" 
	d="
M330.749329,336.982422 
	C330.749847,343.784637 330.749847,350.084534 330.749847,356.694794 
	C326.369110,356.694794 322.285614,356.694794 317.851288,356.694794 
	C317.851288,336.442596 317.851288,316.074219 317.851288,295.402100 
	C321.962952,295.402100 326.029266,295.402100 330.535950,295.402100 
	C330.535950,303.128387 330.535950,310.876465 330.535950,318.968262 
	C338.834442,318.968262 346.705688,318.968262 354.971863,318.968262 
	C354.971863,311.230103 354.971863,303.473999 354.971863,295.409058 
	C359.413452,295.409058 363.472229,295.409058 367.854492,295.409058 
	C367.854492,315.791107 367.854492,336.162231 367.854492,356.771759 
	C363.740601,356.771759 359.658691,356.771759 355.098450,356.771759 
	C355.098450,347.987854 355.098450,339.244415 355.098450,330.426697 
	C346.838409,330.426697 339.054016,330.426697 330.748779,330.426697 
	C330.748779,332.560272 330.748779,334.520172 330.749329,336.982422 
z"/>
<path fill="#F9F9F9" opacity="1.000000" stroke="none" 
	d="
M181.176010,152.250671 
	C181.000458,149.593857 181.108490,147.892105 184.176758,148.052139 
	C191.979172,148.459091 199.840469,148.191238 207.590912,149.014938 
	C215.680222,149.874695 222.063950,153.481567 223.537247,161.708542 
	C225.107803,170.478546 222.584381,176.796570 214.560150,182.069916 
	C214.024673,182.421814 213.508545,182.803177 212.825851,183.281128 
	C218.683243,192.030777 224.432129,200.618362 230.716385,210.005630 
	C225.774780,210.005630 221.419037,210.904938 217.750916,209.703995 
	C215.103104,208.837112 213.065948,205.379059 211.295639,202.717972 
	C208.183914,198.040466 205.833389,192.821793 202.438797,188.384628 
	C201.112106,186.650482 197.828003,186.413818 194.488525,185.131516 
	C194.488525,194.274429 194.488525,202.022278 194.488525,209.782654 
	C189.815506,209.782654 185.708145,209.782654 181.176575,209.782654 
	C181.176575,190.612823 181.176575,171.668289 181.176010,152.250671 
M210.555557,165.093933 
	C208.131592,159.592682 203.081787,157.851196 194.306351,159.663300 
	C194.306351,162.224823 194.306335,164.860382 194.306335,167.495941 
	C194.306335,170.095627 194.306351,172.695297 194.306351,175.200974 
	C205.803070,176.702576 210.186142,174.082321 210.555557,165.093933 
z"/>
<path fill="#F9F9F9" opacity="1.000000" stroke="none" 
	d="
M295.733643,306.730469 
	C292.237946,306.149719 288.996735,304.955139 286.069824,305.487701 
	C283.780396,305.904266 280.628784,308.167023 280.160187,310.152283 
	C279.692383,312.134277 281.469879,315.675476 283.344055,316.979309 
	C288.102661,320.289978 293.616699,322.490051 298.554962,325.572571 
	C307.626831,331.235474 309.092621,342.636108 302.206482,351.682068 
	C299.505219,355.230652 292.954773,356.943573 287.971802,357.381531 
	C281.855194,357.919067 275.525574,356.375153 269.325562,355.472931 
	C266.362610,355.041748 265.084595,353.320282 265.880035,349.971985 
	C266.440063,347.614685 265.988312,345.016968 265.988312,342.820923 
	C272.020569,344.229034 277.865112,345.935974 283.831604,346.817017 
	C286.209473,347.168152 289.223907,346.261658 291.298676,344.921570 
	C294.701630,342.723602 293.738342,337.143433 289.861328,334.933228 
	C284.650543,331.962616 279.290924,329.243591 274.164246,326.137543 
	C268.849213,322.917389 266.950592,317.780182 266.731140,311.751587 
	C266.506195,305.571808 269.129242,300.247925 273.916779,297.371521 
	C280.491638,293.421234 288.257660,293.374420 295.767670,295.161743 
	C299.109985,295.957184 302.329712,297.267853 305.996277,298.473236 
	C304.551605,302.027832 303.260651,305.204224 301.850586,308.673706 
	C299.807281,308.026978 297.965424,307.444000 295.733643,306.730469 
z"/>
<path fill="#F8F8F8" opacity="1.000000" stroke="none" 
	d="
M153.088196,174.879471 
	C158.058838,174.861069 162.542908,174.861069 167.387329,174.861069 
	C167.387329,178.328766 167.387329,181.561966 167.387329,185.334122 
	C160.838943,185.334122 154.118317,185.334122 146.900650,185.334122 
	C146.900650,193.723877 146.900650,201.612198 146.900650,209.749329 
	C142.334534,209.749329 138.267380,209.749329 134.005814,209.749329 
	C134.005814,189.243515 134.005814,168.850891 134.005814,148.276398 
	C145.601517,148.276398 157.055679,148.276398 168.851288,148.276398 
	C168.851288,151.642059 168.851288,155.051361 168.851288,158.890060 
	C161.747726,158.890060 154.506165,158.890060 147.026184,158.890060 
	C147.026184,164.350830 147.026184,169.393814 147.026184,174.897873 
	C149.021973,174.897873 150.811813,174.897873 153.088196,174.879471 
z"/>
<path fill="#F8F8F8" opacity="1.000000" stroke="none" 
	d="
M269.168518,150.875519 
	C270.423767,149.715683 271.453796,148.296509 272.588562,148.207108 
	C276.342529,147.911423 280.134247,148.095551 284.393463,148.095551 
	C281.988281,153.322372 280.030182,158.156265 277.590088,162.733200 
	C274.565643,168.406235 271.486298,174.108871 267.794891,179.351028 
	C264.015411,184.718292 264.127930,190.533646 264.215698,196.528183 
	C264.278961,200.847946 264.228027,205.169388 264.228027,209.749634 
	C259.907166,209.749634 255.829102,209.749634 251.138153,209.749634 
	C251.138153,203.838989 251.525406,197.868561 251.002899,191.978867 
	C250.650848,188.010681 249.615341,183.855408 247.839218,180.307693 
	C242.507614,169.658234 236.662674,159.265778 230.654404,148.097046 
	C234.791626,148.097046 238.254272,147.767410 241.606201,148.233704 
	C243.327026,148.473083 245.536469,149.753479 246.345932,151.216049 
	C250.203293,158.185684 253.655884,165.379333 257.743347,173.464188 
	C261.739471,165.563202 265.365356,158.394241 269.168518,150.875519 
z"/>
<path fill="#FEFEFE" opacity="1.000000" stroke="none" 
	d="
M254.098602,302.078430 
	C254.107559,320.522858 254.107559,338.475677 254.107559,356.714630 
	C249.832748,356.714630 245.745895,356.714630 241.329193,356.714630 
	C241.329193,336.496094 241.329193,316.122559 241.329193,295.420776 
	C245.281174,295.420776 249.344559,295.420776 254.089661,295.420776 
	C254.089661,297.419739 254.089661,299.503296 254.098602,302.078430 
z"/>
</svg>