<svg version="1.1" id="Layer_1" xmlns="http://www.w3.org/2000/svg" xmlns:xlink="http://www.w3.org/1999/xlink" x="0px" y="0px"
	 width="100%" viewBox="0 0 496 496" enable-background="new 0 0 496 496" xml:space="preserve">
<path fill="#000000" opacity="1.000000" stroke="none" 
	d="
M283.000000,497.000000 
	C188.666687,497.000000 94.833382,497.000000 1.000050,497.000000 
	C1.000034,331.666718 1.000034,166.333450 1.000017,1.000139 
	C166.333237,1.000093 331.666473,1.000093 496.999756,1.000046 
	C496.999847,166.333191 496.999847,331.666382 496.999939,496.999786 
	C425.833344,497.000000 354.666656,497.000000 283.000000,497.000000 
M177.433441,438.942322 
	C210.392944,451.764008 244.386948,455.808014 279.404877,450.792603 
	C313.180573,445.955109 344.161377,433.852509 371.271301,413.109833 
	C418.488953,376.982086 445.930206,329.433838 451.817566,269.904480 
	C454.797607,239.772446 450.990906,210.510880 440.796112,182.024887 
	C410.688080,97.897758 324.440643,41.021721 231.984390,50.149567 
	C202.634827,53.047138 174.966568,61.153511 150.008301,76.574455 
	C78.129509,120.986130 44.746311,185.706268 50.257740,270.150330 
	C51.883076,295.053070 59.027431,318.589874 70.291443,340.744568 
	C93.573425,386.536926 128.898438,419.441406 177.433441,438.942322 
z"/>
<path fill="#000000" opacity="1.000000" stroke="none" 
	d="
M331.376434,161.017471 
	C331.377380,175.506851 330.554260,189.559189 331.566803,203.477997 
	C333.193573,225.840363 315.243317,249.489120 286.235992,249.047089 
	C265.253052,248.727341 244.257904,248.906281 223.272018,249.168900 
	C205.592194,249.390137 192.484406,259.061218 188.118942,274.784729 
	C186.877182,279.257294 186.369492,283.908142 186.371918,288.587494 
	C186.382156,308.243561 186.404449,327.899658 186.360275,347.555634 
	C186.319946,365.497955 172.695129,379.254883 154.873627,379.379974 
	C146.711792,379.437286 138.549225,379.394684 130.386993,379.389557 
	C127.986160,379.388062 125.643173,379.515778 125.687515,375.922424 
	C125.733063,372.232452 128.283783,372.725861 130.552094,372.630127 
	C139.359329,372.258301 148.228027,373.465668 156.979370,371.997742 
	C171.353775,369.586609 179.502075,360.042847 179.585983,345.444916 
	C179.703751,324.956726 179.530258,304.467072 179.600327,283.978424 
	C179.681274,260.305176 197.905701,241.896881 221.675720,241.690948 
	C243.662216,241.500458 265.651642,241.670578 287.639740,241.638412 
	C308.886566,241.607346 324.449524,226.153198 324.599884,204.780319 
	C324.726471,186.790909 324.604736,168.799866 324.644714,150.809662 
	C324.681641,134.194061 336.273590,122.696663 353.003998,122.629868 
	C359.333710,122.604591 365.663696,122.640472 371.993561,122.644196 
	C374.310089,122.645561 376.291321,122.828247 376.299286,126.023270 
	C376.307312,129.239609 374.320984,129.374237 372.002808,129.371933 
	C365.839539,129.365814 359.672668,129.251633 353.513702,129.418274 
	C340.307281,129.775604 331.779877,138.352753 331.398987,151.526550 
	C331.312347,154.522263 331.379730,157.522400 331.376434,161.017471 
z"/>
<path fill="#000000" opacity="1.000000" stroke="none" 
	d="
M180.641205,161.010071 
	C180.632904,147.621490 180.633026,147.589767 193.487640,147.638687 
	C199.124603,147.660126 204.756821,147.332718 210.356354,148.705902 
	C217.237946,150.393509 222.336044,153.984756 223.884247,161.101074 
	C225.451996,168.307297 224.543884,175.314758 218.330872,180.131470 
	C214.611526,183.014923 214.690979,185.302261 217.145126,188.789734 
	C221.798706,195.402710 226.156815,202.223618 230.699387,209.050903 
	C221.975403,212.631744 215.708099,210.714951 211.398132,203.675781 
	C208.618149,199.135437 205.751190,194.647156 202.853912,190.180466 
	C201.856796,188.643219 200.739349,187.034531 198.467484,187.691315 
	C196.193604,188.348694 195.386383,190.113724 195.343613,192.272552 
	C195.257919,196.598831 195.133759,200.930298 195.257492,205.252975 
	C195.367004,209.078705 193.814011,210.867538 189.929657,210.417404 
	C189.765594,210.398376 189.597031,210.416260 189.430618,210.419434 
	C180.619858,210.586960 180.633774,210.587006 180.640976,201.956528 
	C180.652222,188.473816 180.642441,174.991119 180.641205,161.010071 
M206.290070,161.132309 
	C196.649673,157.811981 194.978409,158.994965 195.275345,168.944580 
	C195.305008,169.938477 195.325989,170.941193 195.475586,171.920776 
	C195.664215,173.155884 196.353760,174.194458 197.604248,174.412247 
	C201.710297,175.127365 205.776535,174.943314 208.398865,171.205734 
	C210.825623,167.746918 210.310913,164.313339 206.290070,161.132309 
z"/>
<path fill="#000000" opacity="1.000000" stroke="none" 
	d="
M316.799744,328.000000 
	C316.811707,318.340759 316.937500,309.179565 316.783630,300.023102 
	C316.714325,295.900391 318.370422,294.210876 322.426178,294.624664 
	C323.910126,294.776031 325.426941,294.746460 326.918884,294.648621 
	C330.097626,294.440216 331.448364,295.811646 331.361938,299.033234 
	C331.232574,303.858917 331.456268,308.694244 331.317474,313.519379 
	C331.216675,317.024078 332.429077,318.843689 336.185455,318.732544 
	C340.844299,318.594666 345.510712,318.648926 350.172791,318.706390 
	C353.347382,318.745514 354.679993,317.236481 354.636993,314.118439 
	C354.568115,309.123596 354.739441,304.124237 354.611053,299.131866 
	C354.530975,296.016998 355.619751,294.730865 358.903503,294.597748 
	C368.573029,294.205902 368.615204,294.079865 368.609222,303.647797 
	C368.599274,319.631317 368.271576,335.619995 368.604034,351.595551 
	C368.726624,357.485443 365.652191,357.389313 361.484161,357.458344 
	C357.100800,357.530884 354.048859,357.122833 354.548950,351.423737 
	C354.998413,346.301392 354.543060,341.105347 354.651398,335.945282 
	C354.722107,332.577057 353.255035,331.007538 349.912903,331.033173 
	C345.250488,331.068970 340.587524,331.070312 335.925018,331.044769 
	C332.504822,331.026031 331.250977,332.776947 331.312805,336.069977 
	C331.419098,341.729645 331.235504,347.394684 331.333588,353.054688 
	C331.389435,356.277588 329.994904,357.322632 326.835815,357.424286 
	C316.811768,357.746765 316.813049,357.856842 316.804504,347.984344 
	C316.798859,341.489563 316.800873,334.994781 316.799744,328.000000 
z"/>
<path fill="#000000" opacity="1.000000" stroke="none" 
	d="
M306.296997,343.960388 
	C303.538513,354.080200 296.010101,357.264313 287.039856,358.257812 
	C282.047333,358.810730 277.096771,358.083618 272.180389,357.060425 
	C267.437408,356.073334 264.769501,353.760132 265.575500,348.486298 
	C265.869385,346.563324 265.622803,344.557739 265.622803,342.068268 
	C271.065033,343.535645 275.804382,344.852448 280.568634,346.072083 
	C281.843445,346.398407 283.206848,346.633209 284.507782,346.553589 
	C287.936340,346.343781 291.411682,345.691101 292.415405,341.783386 
	C293.382843,338.016815 290.691437,335.938232 287.841858,334.325317 
	C283.644836,331.949799 279.226807,329.944336 275.137207,327.404083 
	C267.826080,322.862762 265.121826,316.090607 266.690765,307.703491 
	C268.129547,300.012115 273.448486,296.297485 280.621643,294.504700 
	C288.615814,292.506714 296.100525,294.363678 303.509369,297.174072 
	C305.639679,297.982178 306.042969,299.233765 305.407562,301.452179 
	C303.290802,308.842499 302.551270,309.363281 295.184265,307.141479 
	C292.284302,306.266907 289.338531,305.794739 286.338104,305.979218 
	C283.666870,306.143494 281.466339,307.319733 280.619324,310.052094 
	C279.739258,312.891083 281.142822,315.008179 283.425781,316.379944 
	C286.985107,318.518707 290.626312,320.556030 294.374115,322.339386 
	C303.400452,326.634369 307.822266,333.405823 306.296997,343.960388 
z"/>
<path fill="#000000" opacity="1.000000" stroke="none" 
	d="
M147.357788,199.995148 
	C147.355133,201.816910 147.220612,203.164276 147.374222,204.477966 
	C147.893570,208.919495 146.264084,210.662048 141.549744,210.531387 
	C132.930344,210.292511 132.926773,210.554703 132.930603,201.762238 
	C132.937546,185.778992 133.060455,169.794312 132.869461,153.813400 
	C132.812820,149.073761 134.394531,147.351212 139.227356,147.535477 
	C147.872406,147.865128 156.544052,147.805161 165.194733,147.560333 
	C170.150360,147.420059 169.862595,150.590469 169.949326,153.816788 
	C170.039627,157.175766 169.468826,159.770599 165.096832,159.449158 
	C161.784958,159.205673 158.440704,159.400696 155.110870,159.403564 
	C147.629517,159.410004 147.340988,159.708328 147.372559,167.384003 
	C147.375290,168.049957 147.403641,168.716980 147.375977,169.381668 
	C147.244934,172.531128 148.854828,173.969543 151.896454,174.014679 
	C156.057678,174.076462 160.219513,174.110260 164.380051,174.202560 
	C169.522171,174.316605 168.099060,178.233688 168.318710,181.145035 
	C168.546112,184.158905 167.885056,186.450256 164.096710,186.329559 
	C160.770691,186.223572 157.437607,186.300186 154.108322,186.346207 
	C148.313171,186.426300 147.463715,187.275558 147.377853,193.012100 
	C147.345459,195.176132 147.363129,197.340881 147.357788,199.995148 
z"/>
<path fill="#000000" opacity="1.000000" stroke="none" 
	d="
M265.162170,188.485138 
	C265.124298,194.430817 265.085144,199.928238 265.092560,205.425583 
	C265.097137,208.819550 263.858795,210.448669 260.061768,210.482971 
	C250.647797,210.567947 250.174088,210.715073 250.764908,201.534439 
	C251.421036,191.338791 249.263412,182.321594 243.779266,173.633408 
	C238.842545,165.812500 234.977188,157.315338 230.621780,149.083344 
	C239.192719,145.345703 245.180664,147.283493 248.978027,154.630127 
	C250.889252,158.327728 252.620239,162.121338 254.612930,165.773209 
	C256.843933,169.861816 258.420929,169.895035 260.780029,165.793549 
	C263.102875,161.755051 265.437866,157.670166 267.186523,153.369400 
	C269.040497,148.809631 271.925323,146.884476 276.775421,147.599411 
	C279.206116,147.957703 281.762177,147.174622 284.153137,148.269653 
	C284.838013,150.553970 283.321960,152.126358 282.416260,153.821686 
	C277.394348,163.221558 272.309448,172.587860 267.231720,181.957825 
	C266.194855,183.871140 265.159241,185.772293 265.162170,188.485138 
z"/>
<path fill="#000000" opacity="1.000000" stroke="none" 
	d="
M240.650848,299.138397 
	C240.487167,296.031616 241.464706,294.504333 244.342514,294.668274 
	C245.502991,294.734375 246.671783,294.643036 247.836792,294.642914 
	C254.480148,294.642242 254.472595,294.644257 254.465851,301.111084 
	C254.448318,317.922821 254.196518,334.739746 254.557098,351.543457 
	C254.681763,357.352814 251.795120,357.462708 247.528351,357.465424 
	C243.263153,357.468140 240.381470,357.355530 240.504211,351.554108 
	C240.870300,334.250671 240.639557,316.934601 240.650848,299.138397 
z"/>
</svg>