<svg version="1.1" id="Layer_1" xmlns="http://www.w3.org/2000/svg" xmlns:xlink="http://www.w3.org/1999/xlink" x="0px" y="0px"
	 width="100%" viewBox="0 0 1877 962" enable-background="new 0 0 1877 962" xml:space="preserve">
<path fill="#0171D3" opacity="1.000000" stroke="none" 
	d="
M423.000000,630.002502 
	C349.203613,630.002502 275.907227,630.002502 202.306000,630.002502 
	C202.306000,491.017334 202.306000,352.424408 202.306000,213.414368 
	C340.547180,213.414368 478.924408,213.414368 617.650879,213.414368 
	C617.650879,275.016113 617.650879,336.729187 617.650879,398.722717 
	C580.294067,398.722717 543.031494,398.722717 505.384338,398.722717 
	C505.384338,369.055145 505.384338,339.340607 505.384338,309.310913 
	C509.963226,309.310913 514.561951,309.310913 519.739746,309.310913 
	C519.739746,334.205231 519.739746,359.256226 519.739746,384.650299 
	C547.358093,384.650299 574.404724,384.650299 601.725098,384.650299 
	C601.725098,332.943268 601.725098,281.348511 601.725098,229.376556 
	C474.034760,229.376556 346.324677,229.376556 218.308411,229.376556 
	C218.308411,357.319824 218.308411,485.245789 218.308411,613.586182 
	C345.889679,613.586182 473.599915,613.586182 601.997498,613.586182 
	C601.997498,611.929016 601.997498,610.167358 601.997498,608.405640 
	C601.997498,581.573425 601.937439,554.740967 602.074585,527.909424 
	C602.091431,524.613281 600.889343,522.493469 598.763916,520.130066 
	C589.862244,510.231903 581.283020,500.044708 572.481262,490.055328 
	C568.392822,485.415161 564.066040,480.985016 559.005371,475.556580 
	C559.005371,495.701477 559.005371,514.590454 559.005371,533.737061 
	C553.944275,533.737061 549.344971,533.737061 544.371704,533.737061 
	C544.371704,503.354950 544.371704,472.961395 544.371704,442.407806 
	C550.720825,440.007355 552.447632,446.132324 555.322998,449.048859 
	C561.646973,455.463440 567.090088,462.736725 573.065186,469.507355 
	C582.406372,480.092285 591.890564,490.551117 601.929871,501.750244 
	C601.929871,482.137146 601.929871,463.406677 601.929871,444.340332 
	C607.364319,444.340332 612.412109,444.340332 617.731873,444.340332 
	C617.731873,506.064972 617.731873,567.660095 617.731873,630.002502 
	C552.996765,630.002502 488.248383,630.002502 423.000000,630.002502 
z"/>
<path fill="#1E72D1" opacity="1.000000" stroke="none" 
	d="
M1014.999390,258.000000 
	C1014.999390,243.203796 1014.999390,228.907593 1014.999390,214.307709 
	C1018.637207,214.307709 1021.903687,214.307709 1025.586914,214.307709 
	C1025.586914,352.516418 1025.586914,490.861420 1025.586914,629.603699 
	C1022.416443,629.603699 1019.036743,629.603699 1014.999390,629.603699 
	C1014.999390,505.942841 1014.999390,382.221436 1014.999390,258.000000 
z"/>
<path fill="#0272D3" opacity="1.000000" stroke="none" 
	d="
M709.327026,514.289124 
	C701.274292,525.321167 690.992615,532.253174 677.556152,532.878052 
	C664.994446,533.462219 652.384216,533.003052 639.388367,533.003052 
	C639.388367,504.132446 639.388367,474.416687 639.388367,443.999237 
	C650.176697,443.999237 661.109192,443.745300 672.023804,444.077240 
	C681.252930,444.357910 689.994446,446.698334 697.861267,451.915314 
	C709.145691,459.398712 714.770508,469.891479 716.099792,483.273743 
	C717.199219,494.341736 715.663757,504.589935 709.327026,514.289124 
M655.011108,497.499969 
	C655.011108,504.910278 655.011108,512.320557 655.011108,519.998230 
	C660.853760,519.998230 666.027100,520.397339 671.117920,519.918762 
	C683.319092,518.771790 692.659973,513.274292 698.091003,501.706909 
	C704.446533,488.170410 699.346985,472.202606 690.798645,465.437653 
	C680.227783,457.072113 667.854675,457.312286 655.011108,458.373840 
	C655.011108,471.279083 655.011108,483.889526 655.011108,497.499969 
z"/>
<path fill="#0172D3" opacity="1.000000" stroke="none" 
	d="
M846.748047,500.255615 
	C839.318420,491.866302 832.143127,483.728821 824.205078,474.726196 
	C824.205078,494.922699 824.205078,514.207397 824.205078,533.741394 
	C818.926392,533.741394 814.327393,533.741394 809.362000,533.741394 
	C809.362000,503.340851 809.362000,472.943573 809.362000,442.446106 
	C814.112366,440.371033 816.646729,443.819702 819.211670,446.715576 
	C828.590942,457.304810 837.893494,467.962402 847.166687,478.644867 
	C853.086182,485.464081 858.892883,492.381195 864.779236,499.229431 
	C865.494690,500.061798 866.390869,500.738708 867.896851,502.127014 
	C867.896851,482.378357 867.896851,463.500641 867.896851,444.314819 
	C872.959290,444.314819 877.557312,444.314819 882.579834,444.314819 
	C882.579834,474.219788 882.579834,504.271362 882.579834,534.545715 
	C877.664062,536.715271 875.122192,532.912048 872.493408,529.954407 
	C866.274048,522.956787 860.269226,515.768738 854.160095,508.672852 
	C851.798645,505.929993 849.389709,503.228027 846.748047,500.255615 
z"/>
<path fill="#0172D3" opacity="1.000000" stroke="none" 
	d="
M312.998016,366.000000 
	C312.998016,346.537750 312.998016,327.575531 312.998016,308.408997 
	C317.218109,307.627289 319.949402,307.926544 322.773376,311.895020 
	C327.518036,318.562561 333.550476,324.308594 338.985962,330.490784 
	C348.320282,341.107513 357.627106,351.748596 366.904755,362.414825 
	C368.197449,363.901031 369.258972,365.588226 370.427521,367.182404 
	C370.886749,366.884003 371.345947,366.585602 371.805176,366.287201 
	C371.805176,347.427399 371.805176,328.567627 371.805176,309.355225 
	C376.989136,309.355225 381.702179,309.355225 386.709808,309.355225 
	C386.709808,339.475800 386.709808,369.531403 386.709808,399.525116 
	C380.853912,401.804932 378.417358,397.072571 375.604156,394.014526 
	C369.835785,387.744171 364.631378,380.959290 358.996552,374.560822 
	C349.002014,363.211853 338.859741,351.992981 328.186920,340.057251 
	C328.186920,359.916992 328.186920,379.206390 328.186920,398.743286 
	C322.924469,398.743286 318.327515,398.743286 312.998016,398.743286 
	C312.998016,388.002228 312.998016,377.251129 312.998016,366.000000 
z"/>
<path fill="#0171D3" opacity="1.000000" stroke="none" 
	d="
M415.067230,308.997345 
	C418.172272,308.997345 420.799805,308.997345 423.810730,308.997345 
	C423.810730,320.669739 423.810730,331.930298 423.810730,343.587463 
	C438.564178,343.587463 452.937469,343.587463 467.881348,343.587463 
	C467.881348,332.305450 467.881348,320.923096 467.881348,309.274963 
	C473.034882,309.274963 477.630798,309.274963 482.614990,309.274963 
	C482.614990,338.919189 482.614990,368.614685 482.614990,398.657227 
	C477.979950,398.657227 473.268921,398.657227 468.167664,398.657227 
	C468.167664,385.303955 468.167664,372.045013 468.167664,358.394745 
	C453.418396,358.394745 439.046021,358.394745 424.108276,358.394745 
	C424.108276,371.701904 424.108276,385.082428 424.108276,398.727692 
	C418.960297,398.727692 414.364807,398.727692 409.382385,398.727692 
	C409.382385,369.075439 409.382385,339.380005 409.382385,308.997345 
	C411.069977,308.997345 412.829834,308.997345 415.067230,308.997345 
z"/>
<path fill="#0172D3" opacity="1.000000" stroke="none" 
	d="
M755.091919,519.998047 
	C768.205566,519.998047 780.828979,519.998047 793.729980,519.998047 
	C793.729980,524.647522 793.729980,528.918335 793.729980,533.597351 
	C773.488770,533.597351 753.108398,533.597351 732.357178,533.597351 
	C732.357178,504.078888 732.357178,474.371857 732.357178,444.332031 
	C752.008972,444.332031 771.718262,444.332031 791.715576,444.332031 
	C791.715576,448.684357 791.715576,452.949677 791.715576,457.781006 
	C777.427673,457.781006 763.042725,457.781006 748.333618,457.781006 
	C748.333618,465.383514 748.333618,472.428497 748.333618,479.872375 
	C759.070251,479.872375 769.665588,479.872375 780.628174,479.872375 
	C780.628174,484.304413 780.628174,488.348663 780.628174,492.795380 
	C770.014221,492.795380 759.416260,492.795380 748.411743,492.795380 
	C748.411743,501.885651 748.411743,510.599030 748.411743,519.998047 
	C750.411011,519.998047 752.506409,519.998047 755.091919,519.998047 
z"/>
<path fill="#0171D3" opacity="1.000000" stroke="none" 
	d="
M491.052612,458.002563 
	C487.923584,458.002563 485.287109,458.002563 482.327087,458.002563 
	C482.327087,465.392975 482.327087,472.435272 482.327087,480.000427 
	C487.753174,480.000427 493.034546,480.000427 498.315918,480.000427 
	C503.628174,480.000427 508.940460,480.000427 514.625183,480.000427 
	C514.625183,484.297668 514.625183,488.341858 514.625183,492.783173 
	C504.029846,492.783173 493.436249,492.783173 482.422729,492.783173 
	C482.422729,501.864349 482.422729,510.573181 482.422729,519.844360 
	C497.325836,519.844360 512.371277,519.844360 527.705078,519.844360 
	C527.705078,524.651245 527.705078,528.916565 527.705078,533.594238 
	C507.798187,533.594238 487.762665,533.594238 467.362305,533.594238 
	C467.362305,504.032928 467.362305,474.340576 467.362305,444.323456 
	C486.724609,444.323456 506.091156,444.323456 525.729370,444.323456 
	C525.729370,448.718140 525.729370,452.981201 525.729370,458.002563 
	C514.364624,458.002563 502.954895,458.002563 491.052612,458.002563 
z"/>
<path fill="#0272D4" opacity="1.000000" stroke="none" 
	d="
M345.083069,442.999512 
	C355.037445,443.605438 362.087036,448.665070 367.824219,455.758270 
	C368.619659,456.741730 368.619385,459.616516 367.805389,460.423828 
	C365.192596,463.015259 362.025269,465.047577 359.274261,467.141541 
	C352.933167,459.724396 346.270996,454.666870 336.187958,456.947052 
	C331.259369,458.061554 328.177490,461.109924 327.296295,465.658813 
	C326.500977,469.764313 329.368530,472.985657 332.744080,474.826965 
	C340.026031,478.799042 347.565308,482.299866 355.003876,485.984253 
	C368.580750,492.709076 373.370789,502.388916 369.964539,516.950867 
	C367.837982,526.041992 359.102722,533.372437 348.329437,534.773804 
	C339.082367,535.976562 329.504028,535.754211 321.032837,530.549011 
	C314.851044,526.750610 309.220795,522.372131 306.798248,514.880310 
	C310.419006,512.179504 313.896149,509.585785 317.430450,506.949463 
	C323.222961,514.759583 329.645355,520.627258 339.882660,521.509033 
	C348.893799,522.285278 356.327118,516.010925 354.809479,507.121613 
	C354.432739,504.914886 352.251617,502.345825 350.199280,501.215942 
	C342.795502,497.139923 335.035614,493.718048 327.514679,489.846222 
	C311.392792,481.546539 307.031525,465.592743 316.987183,452.242523 
	C320.922485,446.965363 326.770691,444.216064 333.109528,443.123474 
	C336.850647,442.478699 340.792938,443.001007 345.083069,442.999512 
z"/>
<path fill="#0172D3" opacity="1.000000" stroke="none" 
	d="
M419.888550,534.001892 
	C416.113922,534.001892 412.822174,534.001892 409.180725,534.001892 
	C409.180725,508.645721 409.180725,483.734467 409.180725,458.284180 
	C399.121490,458.284180 389.400848,458.284180 379.338074,458.284180 
	C379.338074,453.369324 379.338074,448.988098 379.338074,444.299011 
	C404.395660,444.299011 429.428528,444.299011 454.736938,444.299011 
	C454.736938,448.683594 454.736938,452.952240 454.736938,457.763794 
	C445.144806,457.763794 435.422943,457.763794 425.187469,457.763794 
	C425.187469,483.328766 425.187469,508.362823 425.187469,533.703186 
	C423.250671,533.823303 421.811035,533.912598 419.888550,534.001892 
z"/>
<path fill="#1F73D2" opacity="1.000000" stroke="none" 
	d="
M1410.170776,498.994354 
	C1417.628662,498.994080 1424.604736,498.994080 1431.553955,498.994080 
	C1432.000854,491.883240 1423.709473,484.608856 1416.906494,486.127411 
	C1406.188110,488.519958 1400.668091,496.855804 1402.041504,509.158722 
	C1402.977661,517.544800 1412.246460,525.134521 1421.191284,523.780701 
	C1426.752319,522.939026 1431.991333,519.969055 1437.882690,517.764282 
	C1439.303711,519.988586 1441.268433,523.063782 1443.154419,526.015686 
	C1432.539185,538.947571 1409.603271,538.081421 1398.100708,527.976685 
	C1386.320801,517.628296 1385.857910,496.039948 1395.937988,484.673004 
	C1403.473145,476.176178 1413.683716,473.219513 1424.592896,475.419250 
	C1435.906494,477.700592 1443.599365,484.621552 1444.974976,496.768555 
	C1445.454102,500.998627 1445.051147,505.328613 1445.051147,509.999573 
	C1438.172852,509.999573 1431.870483,509.999573 1425.568115,509.999573 
	C1419.263062,509.999573 1412.958130,509.999573 1406.722046,509.999573 
	C1404.890869,501.522156 1405.469482,499.480499 1410.170776,498.994354 
z"/>
<path fill="#1F73D2" opacity="1.000000" stroke="none" 
	d="
M1377.000977,390.270203 
	C1379.800171,370.630951 1391.167603,363.079834 1407.105591,362.314423 
	C1420.624634,361.665222 1433.444214,370.625366 1433.919189,387.479431 
	C1434.223511,398.282959 1435.431519,396.926941 1424.411865,396.987122 
	C1414.791138,397.039703 1405.169922,396.998108 1395.278076,396.998108 
	C1395.278076,393.636719 1395.278076,390.701355 1395.278076,387.260986 
	C1403.590942,387.260986 1412.004150,387.260986 1420.890625,387.260986 
	C1419.638062,381.162506 1417.313721,376.780334 1411.540649,374.846985 
	C1405.459351,372.810425 1400.438354,374.214264 1395.837036,378.655853 
	C1385.558960,388.577087 1389.828003,407.141785 1403.381226,410.732941 
	C1409.578491,412.375000 1416.836670,410.524994 1424.995850,405.113403 
	C1425.297119,405.224365 1425.666992,405.265350 1425.885132,405.468781 
	C1433.419312,412.491943 1433.163818,414.603546 1424.247803,419.322998 
	C1410.172852,426.773315 1390.461426,424.125397 1381.031006,408.574524 
	C1377.668457,403.029602 1376.753540,397.032349 1377.000977,390.270203 
z"/>
<path fill="#1F73D2" opacity="1.000000" stroke="none" 
	d="
M1160.666748,345.141479 
	C1170.681641,358.612091 1180.409424,371.825684 1190.346191,385.323059 
	C1200.319580,371.861542 1209.784790,358.838776 1219.604736,346.089355 
	C1221.133545,344.104492 1224.281128,343.366455 1227.038940,341.855133 
	C1229.671509,352.123749 1227.230347,359.423157 1221.228516,366.537384 
	C1212.188843,377.252533 1204.080566,388.753845 1195.585815,399.928101 
	C1192.603638,403.850861 1189.013672,404.303986 1186.186890,400.661804 
	C1175.684570,387.130615 1164.880005,373.791901 1155.220581,359.675110 
	C1152.428345,355.594177 1153.092651,349.147980 1152.172241,343.786163 
	C1152.661621,343.362244 1153.151123,342.938354 1153.640625,342.514465 
	C1155.886963,343.304474 1158.133301,344.094482 1160.666748,345.141479 
z"/>
<path fill="#1F73D2" opacity="1.000000" stroke="none" 
	d="
M1318.980957,489.103333 
	C1327.085938,474.353851 1343.602295,472.036713 1356.178223,477.681854 
	C1357.048218,478.072266 1357.850220,479.574310 1357.919556,480.610596 
	C1358.140869,483.916504 1358.001587,487.246582 1358.001587,491.591248 
	C1348.473389,485.681213 1339.162476,484.719910 1332.299072,493.790680 
	C1326.344238,501.660950 1327.578125,510.738220 1332.041748,516.413757 
	C1338.162598,524.196350 1344.018188,524.957947 1357.435181,520.271484 
	C1357.592285,520.520020 1357.908936,520.786255 1357.888550,521.023438 
	C1357.556641,524.881653 1358.403076,531.220215 1356.582642,532.115295 
	C1351.567627,534.580933 1345.192383,536.381042 1339.780029,535.578796 
	C1314.721313,531.864624 1310.211426,505.341858 1318.980957,489.103333 
z"/>
<path fill="#1F73D1" opacity="1.000000" stroke="none" 
	d="
M1334.761230,422.999420 
	C1324.247925,423.917664 1315.320679,420.988098 1309.523804,412.768494 
	C1303.419556,404.113373 1301.636597,394.199371 1304.707886,383.532013 
	C1308.311157,371.017639 1318.391479,362.256653 1331.176270,362.137421 
	C1335.139404,362.100433 1339.222900,363.375885 1343.031982,364.687164 
	C1344.360107,365.144318 1345.597900,367.422180 1345.870605,369.038269 
	C1346.333374,371.782043 1345.997803,374.660492 1345.997803,378.196838 
	C1336.955933,374.121460 1328.130859,372.343536 1321.210815,380.722565 
	C1315.861694,387.199493 1314.792603,395.181641 1319.314575,402.272888 
	C1325.750366,412.365265 1335.171143,413.445526 1345.462158,407.479675 
	C1347.191040,420.086853 1345.638672,422.294128 1334.761230,422.999420 
z"/>
<path fill="#1F73D1" opacity="1.000000" stroke="none" 
	d="
M1498.001709,414.016479 
	C1498.001709,411.918213 1498.001709,410.263336 1498.001709,407.836029 
	C1508.310547,412.331512 1517.796997,413.316864 1524.180786,402.318878 
	C1528.144165,395.491028 1527.407104,386.541565 1522.744263,381.308685 
	C1517.550781,375.480103 1512.444824,372.032776 1498.029663,378.070465 
	C1498.029663,374.414032 1497.855225,371.014374 1498.138184,367.653198 
	C1498.220581,366.673859 1499.424683,365.420837 1500.424927,364.942444 
	C1514.800049,358.067413 1534.539307,365.083893 1538.881592,382.745087 
	C1541.585205,393.741608 1541.395142,404.934753 1532.906128,413.656219 
	C1529.151001,417.514221 1523.954590,421.062775 1518.841431,422.212524 
	C1513.192627,423.482697 1506.844727,422.171600 1500.887451,421.355469 
	C1496.950806,420.816162 1498.165283,417.121704 1498.001709,414.016479 
z"/>
<path fill="#1F73D1" opacity="1.000000" stroke="none" 
	d="
M1583.269409,416.399170 
	C1579.907349,423.493073 1577.348877,430.638306 1573.366577,436.874481 
	C1569.823975,442.422424 1563.611694,444.150421 1556.928589,444.046783 
	C1545.765381,443.873718 1545.763428,444.001587 1547.548706,432.184174 
	C1548.272461,432.128113 1549.098022,431.893860 1549.856201,432.031494 
	C1558.702393,433.637054 1563.617310,429.415100 1566.883911,421.534668 
	C1574.045044,404.258636 1581.656494,387.169678 1588.998291,369.967712 
	C1590.646729,366.105469 1592.339478,362.913239 1597.536377,363.916046 
	C1600.097534,364.410278 1602.832886,364.001801 1606.385254,364.001801 
	C1598.583984,381.710297 1591.018799,398.882660 1583.269409,416.399170 
z"/>
<path fill="#1E72D1" opacity="1.000000" stroke="none" 
	d="
M1361.999023,487.000000 
	C1361.999023,473.212677 1361.999023,459.925354 1361.999023,446.320038 
	C1366.396851,446.320038 1370.440063,446.320038 1374.743896,446.320038 
	C1374.743896,475.723480 1374.743896,504.960907 1374.743896,534.603271 
	C1370.770020,534.603271 1366.724243,534.603271 1361.999023,534.603271 
	C1361.999023,518.984802 1361.999023,503.242401 1361.999023,487.000000 
z"/>
<path fill="#1E72D1" opacity="1.000000" stroke="none" 
	d="
M1364.001221,343.051025 
	C1364.001221,369.477631 1364.001221,395.410339 1364.001221,421.671204 
	C1359.621338,421.671204 1355.578857,421.671204 1351.265381,421.671204 
	C1351.265381,392.634521 1351.265381,363.736115 1351.265381,334.418640 
	C1355.203247,334.418640 1359.248901,334.418640 1364.001221,334.418640 
	C1364.001221,337.035065 1364.001221,339.796082 1364.001221,343.051025 
z"/>
<path fill="#1E72D1" opacity="1.000000" stroke="none" 
	d="
M1483.188232,334.003662 
	C1486.615112,334.001404 1489.567383,334.001404 1492.750977,334.001404 
	C1492.750977,363.403046 1492.750977,392.306091 1492.750977,421.605255 
	C1488.752197,421.605255 1484.707520,421.605255 1480.323853,421.605255 
	C1480.220825,420.420807 1480.014893,419.148895 1480.013916,417.876862 
	C1479.995239,391.412598 1479.982300,364.948273 1480.036865,338.484131 
	C1480.040771,336.617401 1478.915161,333.744690 1483.188232,334.003662 
z"/>
<path fill="#1F73D1" opacity="1.000000" stroke="none" 
	d="
M1263.640137,374.714233 
	C1258.769531,377.274048 1254.250732,379.636444 1249.056519,382.351990 
	C1248.903198,382.214966 1247.782715,381.295929 1246.755615,380.282440 
	C1241.300293,374.899231 1241.261353,374.524902 1247.025024,369.455597 
	C1257.219849,360.488770 1276.537598,358.672333 1285.760620,370.476898 
	C1288.244995,373.656647 1290.578857,377.903320 1290.757324,381.763062 
	C1291.368774,394.988464 1290.991821,408.259521 1290.991821,421.753235 
	C1286.577148,421.753235 1282.651611,421.753235 1278.001709,421.753235 
	C1278.001709,413.506042 1278.100830,405.263245 1277.962769,397.024384 
	C1277.885986,392.441620 1278.038940,387.714264 1276.975952,383.321259 
	C1275.327148,376.506744 1271.455811,374.287415 1263.640137,374.714233 
z"/>
<path fill="#1F73D1" opacity="1.000000" stroke="none" 
	d="
M1476.587769,477.986450 
	C1490.201294,470.552673 1508.871216,476.373077 1509.882568,496.502563 
	C1510.515137,509.092072 1510.000122,521.739258 1510.000122,534.682434 
	C1505.345947,534.682434 1500.960205,534.682434 1495.993774,534.682434 
	C1495.993774,523.746338 1495.294067,512.768555 1496.185181,501.921448 
	C1497.127075,490.457397 1487.367065,483.756989 1477.746826,488.620697 
	C1477.357422,488.817566 1476.829102,488.739563 1476.282227,488.798615 
	C1476.282227,485.215759 1476.282227,481.751862 1476.587769,477.986450 
z"/>
<path fill="#1F73D1" opacity="1.000000" stroke="none" 
	d="
M1264.989746,478.258911 
	C1265.002319,488.902039 1265.257568,499.075684 1264.933228,509.230804 
	C1264.617432,519.117432 1271.105225,525.757019 1282.480225,522.226013 
	C1283.081909,522.039246 1283.770996,522.134766 1284.986694,522.067505 
	C1284.986694,525.491760 1285.252563,528.814209 1284.841431,532.050720 
	C1284.698975,533.171936 1283.033569,534.660522 1281.796875,534.995361 
	C1269.181641,538.410645 1255.173462,531.484314 1252.057983,516.324341 
	C1251.433716,513.286560 1251.079346,510.143921 1251.041016,507.044159 
	C1250.915894,496.906555 1250.994019,486.766418 1250.994019,476.022644 
	C1255.240356,476.022644 1259.181274,475.943817 1263.112671,476.101440 
	C1263.756104,476.127258 1264.357788,477.195068 1264.989746,478.258911 
z"/>
<path fill="#1F73D2" opacity="1.000000" stroke="none" 
	d="
M1611.999268,518.000977 
	C1612.477295,526.160889 1607.248901,532.789001 1599.000122,533.730225 
	C1599.000122,529.390747 1598.881836,525.088562 1599.036011,520.796265 
	C1599.169922,517.069153 1597.752686,514.639221 1594.304199,513.029724 
	C1588.259033,510.208313 1582.242798,507.289612 1576.413940,504.052338 
	C1572.009277,501.606110 1569.097778,494.287048 1570.142822,489.656708 
	C1571.895020,481.892792 1575.602905,478.190826 1582.998047,477.234680 
	C1582.998047,480.241394 1583.032227,483.193665 1582.991211,486.144897 
	C1582.889893,493.459229 1584.695557,494.961273 1591.478027,498.034210 
	C1596.327637,500.231323 1601.058838,502.710754 1605.738159,505.256531 
	C1610.565430,507.882751 1612.071655,512.359253 1611.999268,518.000977 
z"/>
<path fill="#1F73D2" opacity="1.000000" stroke="none" 
	d="
M1179.059082,519.155273 
	C1176.930664,516.500793 1175.258179,513.401978 1172.696289,512.202087 
	C1165.916870,509.026917 1158.554688,507.067047 1153.441772,501.001892 
	C1150.736084,497.792328 1149.962524,489.192719 1152.106934,484.623260 
	C1154.407471,479.721252 1158.221558,477.315704 1164.005005,476.952301 
	C1164.005005,481.166687 1164.217041,484.988312 1163.944702,488.775146 
	C1163.678223,492.480499 1165.323486,494.579163 1168.476074,496.106781 
	C1174.031006,498.798431 1179.467407,501.734558 1185.012207,504.448029 
	C1190.797852,507.279388 1192.859009,512.729736 1192.677490,518.212219 
	C1192.427002,525.780640 1188.733154,531.819641 1180.483887,533.795593 
	C1180.015503,528.948547 1179.562622,524.262512 1179.059082,519.155273 
z"/>
<path fill="#1F73D1" opacity="1.000000" stroke="none" 
	d="
M1221.510742,492.512146 
	C1221.892944,499.677917 1222.361450,506.529907 1221.893066,513.317261 
	C1221.332275,521.444458 1228.396240,524.801819 1235.506714,523.733704 
	C1237.099243,523.494507 1238.670410,523.114014 1241.006226,522.647949 
	C1241.006226,525.083740 1241.006226,527.011902 1241.006226,528.940002 
	C1241.006226,530.751099 1241.006226,532.562195 1241.006226,535.009583 
	C1234.800171,535.009583 1228.825317,535.438354 1222.938110,534.903381 
	C1215.200439,534.200256 1209.649048,528.171631 1209.043457,520.207886 
	C1208.344727,511.019867 1208.037964,501.802094 1207.538696,492.169739 
	C1212.643799,492.169739 1216.912964,492.169739 1221.510742,492.512146 
z"/>
<path fill="#1E72D1" opacity="1.000000" stroke="none" 
	d="
M1459.000366,506.000000 
	C1459.000366,495.879608 1459.000366,486.259186 1459.000366,476.321014 
	C1463.396851,476.321014 1467.438721,476.321014 1471.743530,476.321014 
	C1471.743530,495.719513 1471.743530,514.961060 1471.743530,534.605591 
	C1467.802490,534.605591 1463.758301,534.605591 1459.000366,534.605591 
	C1459.000366,525.323669 1459.000366,515.911804 1459.000366,506.000000 
z"/>
<path fill="#1F73D1" opacity="1.000000" stroke="none" 
	d="
M1560.999023,531.794006 
	C1560.699707,533.130310 1560.639038,534.538391 1560.068237,534.790344 
	C1552.310181,538.213867 1538.466553,535.676941 1533.097168,529.368530 
	C1531.023926,526.932922 1529.361206,523.380859 1529.184448,520.243225 
	C1528.670166,511.116669 1529.001953,501.942535 1529.001953,492.393677 
	C1533.256958,492.393677 1537.304810,492.393677 1542.000854,492.393677 
	C1542.000854,499.272980 1542.401733,506.239136 1541.899048,513.139465 
	C1541.275757,521.694397 1548.437988,524.610596 1555.366089,523.804871 
	C1557.069214,523.606812 1558.745972,523.182617 1561.000488,522.755127 
	C1561.000488,526.066040 1561.000488,528.697205 1560.999023,531.794006 
z"/>
<path fill="#1F73D2" opacity="1.000000" stroke="none" 
	d="
M1267.011597,412.032532 
	C1269.147339,411.545013 1270.874390,411.084259 1272.998047,410.517639 
	C1272.998047,412.356110 1272.734253,414.167664 1273.050293,415.871735 
	C1273.830811,420.080750 1271.769531,422.182343 1267.988770,422.481537 
	C1260.222778,423.096191 1252.647217,424.377197 1245.592651,418.377167 
	C1235.901123,410.134369 1240.216431,392.243073 1252.591797,390.797180 
	C1259.191284,390.026123 1265.780518,389.166351 1272.757446,388.299011 
	C1272.757446,392.423004 1272.757446,395.358032 1272.757446,398.445007 
	C1268.225586,398.965607 1263.593140,399.039764 1259.250000,400.198608 
	C1257.215088,400.741608 1254.380859,403.354767 1254.352173,405.070709 
	C1254.316040,407.220428 1256.320557,410.314880 1258.305054,411.348175 
	C1260.578247,412.531769 1263.795654,411.901520 1267.011597,412.032532 
z"/>
<path fill="#1F73D1" opacity="1.000000" stroke="none" 
	d="
M1219.745850,461.016235 
	C1220.812378,462.158630 1221.845703,463.261963 1221.917114,464.424377 
	C1222.140015,468.051239 1221.999023,471.700500 1221.999023,475.909424 
	C1227.711792,475.909424 1233.109863,475.909424 1238.744507,475.909424 
	C1238.744507,480.072388 1238.744507,483.672180 1238.744507,487.638855 
	C1225.692993,487.638855 1212.641479,487.638855 1199.293091,487.638855 
	C1199.293091,484.006683 1199.293091,480.408356 1199.293091,476.244781 
	C1201.898804,476.244781 1204.619019,476.244781 1207.887451,476.244781 
	C1207.887451,470.972961 1207.887451,466.237396 1207.887451,461.004150 
	C1212.035645,461.004150 1215.654175,461.004150 1219.745850,461.016235 
z"/>
<path fill="#1F73D1" opacity="1.000000" stroke="none" 
	d="
M1214.000000,400.000854 
	C1214.000000,395.844482 1214.297485,392.158752 1213.944092,388.536560 
	C1212.889893,377.733734 1222.203125,373.282257 1226.500977,365.774750 
	C1226.881226,365.926453 1227.261475,366.078125 1227.641724,366.229828 
	C1227.641724,384.554871 1227.641724,402.879913 1227.641724,421.603088 
	C1223.472168,421.603088 1219.092407,421.603088 1214.000000,421.603088 
	C1214.000000,414.655273 1214.000000,407.577911 1214.000000,400.000854 
z"/>
<path fill="#1F73D2" opacity="1.000000" stroke="none" 
	d="
M1167.005859,391.061310 
	C1167.005859,401.498505 1167.005859,411.446045 1167.005859,421.694580 
	C1162.276611,421.694580 1157.897095,421.694580 1153.253662,421.694580 
	C1153.253662,403.181091 1153.253662,384.802856 1153.253662,365.013824 
	C1157.098755,369.503845 1160.095215,373.352417 1163.462769,376.843018 
	C1167.318115,380.839294 1167.252930,385.631348 1167.005859,391.061310 
z"/>
<path fill="#1F73D1" opacity="1.000000" stroke="none" 
	d="
M1558.483276,487.519653 
	C1545.332397,487.843079 1532.526489,487.843079 1519.360352,487.843079 
	C1519.360352,484.014709 1519.360352,480.301178 1519.360352,476.198425 
	C1522.332642,476.198425 1525.269897,476.198425 1528.773438,476.198425 
	C1528.773438,471.113617 1528.773438,466.384857 1528.773438,461.331482 
	C1533.379517,461.331482 1537.425903,461.331482 1541.870972,461.331482 
	C1541.870972,466.057373 1541.870972,470.662689 1541.870972,475.831421 
	C1547.633911,475.831421 1553.024902,475.831421 1558.828247,475.831421 
	C1558.828247,479.988617 1558.828247,483.592438 1558.483276,487.519653 
z"/>
<path fill="#1E72D1" opacity="1.000000" stroke="none" 
	d="
M1296.918213,475.998962 
	C1298.698486,475.999023 1300.005615,475.999023 1301.999634,475.999023 
	C1301.999634,485.696899 1302.111572,495.102692 1301.954834,504.504028 
	C1301.870117,509.577698 1301.936157,514.781433 1300.831177,519.677551 
	C1299.516479,525.503296 1295.122803,529.283752 1289.352539,532.416016 
	C1289.352539,513.421143 1289.352539,495.097290 1289.352539,475.998901 
	C1291.625610,475.998901 1294.035278,475.998901 1296.918213,475.998962 
z"/>
<path fill="#1F73D2" opacity="1.000000" stroke="none" 
	d="
M1568.702759,406.692322 
	C1567.790161,408.637939 1567.094971,410.260712 1565.737671,413.428619 
	C1558.617432,396.401154 1551.947998,380.451813 1545.299561,364.552917 
	C1545.794800,364.260559 1545.911255,364.134735 1546.035645,364.126465 
	C1559.201172,363.254242 1559.177368,363.264679 1564.405762,375.829987 
	C1566.587646,381.074097 1568.503906,386.482971 1571.245972,391.425903 
	C1574.498169,397.288361 1570.635498,401.552612 1568.702759,406.692322 
z"/>
<path fill="#1F73D2" opacity="1.000000" stroke="none" 
	d="
M1579.282349,519.740845 
	C1584.407715,521.827698 1589.268188,523.651855 1594.998657,525.802551 
	C1594.998657,526.106812 1594.997192,527.721008 1594.999023,529.335266 
	C1595.007202,536.104797 1593.598267,537.659790 1587.172729,535.795227 
	C1581.401611,534.120544 1575.794800,531.570618 1570.480347,528.725342 
	C1565.922729,526.285339 1566.074097,524.642029 1569.666748,520.789307 
	C1571.081543,519.272034 1572.287109,517.559570 1573.650513,515.857788 
	C1575.556519,517.143433 1577.286865,518.310791 1579.282349,519.740845 
z"/>
<path fill="#1F73D2" opacity="1.000000" stroke="none" 
	d="
M1172.670044,535.954956 
	C1162.890503,536.483276 1152.286743,531.940430 1147.126953,524.217407 
	C1149.860840,521.650757 1152.588379,519.090149 1155.616821,516.247009 
	C1160.336548,521.375427 1166.400635,525.248047 1175.927490,523.726440 
	C1174.846191,528.422913 1173.982666,532.173706 1172.670044,535.954956 
z"/>
<path fill="#1F73D2" opacity="1.000000" stroke="none" 
	d="
M1181.719604,490.230316 
	C1177.348267,488.599060 1173.253052,487.233490 1168.406738,485.617493 
	C1168.406738,483.129059 1168.406738,479.410919 1168.406738,475.403473 
	C1176.751465,473.667480 1183.941895,476.411194 1190.279297,481.874115 
	C1191.015747,482.509003 1191.552246,484.437866 1191.133301,485.150909 
	C1189.904663,487.241913 1188.393555,489.350128 1186.489380,490.781555 
	C1185.578003,491.466705 1183.529297,490.638702 1181.719604,490.230316 
z"/>
<path fill="#1F73D2" opacity="1.000000" stroke="none" 
	d="
M1588.002441,482.860626 
	C1588.002197,480.112671 1588.002197,477.829956 1588.002197,475.376953 
	C1595.851562,474.142639 1602.435303,475.838318 1608.280518,480.716675 
	C1611.361938,483.288483 1611.910889,485.507202 1608.419800,488.197418 
	C1607.013062,489.281555 1606.069214,490.966370 1605.776367,491.324463 
	C1599.722778,489.661377 1594.793701,488.474670 1590.012451,486.852570 
	C1589.053955,486.527405 1588.657959,484.544464 1588.002441,482.860626 
z"/>
</svg>